<?xml version="1.0" encoding="UTF-8"?>
<svg width="14px" height="14px" viewBox="0 0 14 14" version="1.1" xmlns="http://www.w3.org/2000/svg" xmlns:xlink="http://www.w3.org/1999/xlink">
    <!-- Generator: Sketch 46.2 (44496) - http://www.bohemiancoding.com/sketch -->
    <title>Adm icon</title>
    <desc>Created with Sketch.</desc>
    <defs></defs>
    <g id="dashboards-preview" stroke="none" stroke-width="1" fill="none" fill-rule="evenodd">
        <g id="1600_1" transform="translate(-21.000000, -512.000000)" fill="#FFFFFF">
            <path d="M32.9974613,519.7 C32.9974613,519.49 33.0674613,519.28 33.0674613,519 C33.0674613,518.72 33.0674613,518.51 32.9974613,518.3 L34.4674613,517.11 C34.6074613,516.97 34.6074613,516.83 34.5374613,516.69 L33.1374613,514.24 C33.0674613,514.17 32.9274613,514.1 32.7174613,514.17 L30.9674613,514.87 C30.6174613,514.59 30.1974613,514.38 29.7774613,514.17 L29.4974613,512.35 C29.5674613,512.14 29.3574613,512 29.2174613,512 L26.4174613,512 C26.2774613,512 26.0674613,512.14 26.0674613,512.28 L25.7874613,514.17 C25.3674613,514.31 25.0174613,514.59 24.5974613,514.87 L22.9174613,514.17 C22.7074613,514.1 22.5674613,514.17 22.4274613,514.31 L21.0274613,516.76 C20.9574613,516.83 21.0274613,517.04 21.1674613,517.18 L22.6374613,518.3 C22.6374613,518.51 22.5674613,518.72 22.5674613,519 C22.5674613,519.28 22.5674613,519.49 22.6374613,519.7 L21.1674613,520.89 C21.0274613,521.03 21.0274613,521.17 21.0974613,521.31 L22.4974613,523.76 C22.5674613,523.83 22.7074613,523.9 22.9174613,523.83 L24.6674613,523.13 C25.0174613,523.41 25.4374613,523.62 25.8574613,523.83 L26.1374613,525.65 C26.1374613,525.79 26.2774613,525.93 26.4874613,525.93 L29.2874613,525.93 C29.4274613,525.93 29.6374613,525.79 29.6374613,525.65 L29.9174613,523.83 C30.3374613,523.62 30.7574613,523.41 31.1074613,523.13 L32.8574613,523.83 C32.9974613,523.9 33.2074613,523.83 33.2774613,523.69 L34.6774613,521.24 C34.7474613,521.1 34.7474613,520.89 34.6074613,520.82 L32.9974613,519.7 L32.9974613,519.7 Z M27.8174613,521.45 C26.4874613,521.45 25.3674613,520.33 25.3674613,519 C25.3674613,517.67 26.4874613,516.55 27.8174613,516.55 C29.1474613,516.55 30.2674613,517.67 30.2674613,519 C30.2674613,520.33 29.1474613,521.45 27.8174613,521.45 L27.8174613,521.45 Z" id="Adm-icon"></path>
        </g>
    </g>
</svg>