<?xml version="1.0" encoding="UTF-8"?>
<svg width="14px" height="13px" viewBox="0 0 14 13" version="1.1" xmlns="http://www.w3.org/2000/svg" xmlns:xlink="http://www.w3.org/1999/xlink">
    <!-- Generator: Sketch 46.2 (44496) - http://www.bohemiancoding.com/sketch -->
    <title>fa-heartbeat copy 3</title>
    <desc>Created with Sketch.</desc>
    <defs></defs>
    <g id="dashboards-preview" stroke="none" stroke-width="1" fill="none" fill-rule="evenodd" fill-opacity="0.54">
        <g id="1600_1" transform="translate(-21.000000, -558.000000)" fill="#FFFFFF">
            <g id="fa-heartbeat-copy-3" transform="translate(21.000000, 558.000000)">
                <path d="M10.0000119,7.27777301 C9.8125117,7.27777301 9.64063649,7.16839788 9.55469889,7.00433518 L9.11719837,6.12933414 L7.97657201,9.91840116 C7.91407193,10.1293389 7.7187592,10.2777766 7.50000894,10.2777766 C7.27344617,10.2777766 7.07813344,10.1293389 7.01563336,9.91840116 L5.53125659,4.70745745 L4.98438094,6.90277256 C4.92969338,7.12152282 4.72656813,7.27777301 4.50000536,7.27777301 L1.61718943,7.27777301 C1.70312703,7.37152312 1.7656271,7.42621069 1.78125212,7.4340232 L6.65625793,12.1371538 C6.75000805,12.2309039 6.8750082,12.277779 7.00000834,12.277779 C7.12500849,12.277779 7.25000864,12.2309039 7.34375875,12.1371538 L12.2109521,7.44964821 C12.2265771,7.4340232 12.2890771,7.37933563 12.3828273,7.27777301 L10.0000119,7.27777301 Z M14.0000167,3.93401902 C14.0000167,1.64495379 12.6015775,0.277764665 10.2656372,0.277764665 C8.89844811,0.277764665 7.61719658,1.35589095 7.00000834,1.96526668 C6.38282011,1.35589095 5.10156858,0.277764665 3.73437945,0.277764665 C1.39843917,0.277764665 0,1.64495379 0,3.93401902 C0,4.83245759 0.390625466,5.65277107 0.804688459,6.27777182 L4.1093799,6.27777182 L5.01563098,2.6527675 C5.07031854,2.43401724 5.26563128,2.27776705 5.49219405,2.27776705 C5.72656933,2.27776705 5.92188206,2.42620473 5.98438213,2.63714248 L7.51563396,7.99652387 L8.52344766,4.63714486 C8.57813523,4.43401962 8.75001043,4.30120696 8.96094818,4.27776943 C9.15626092,4.26214441 9.35938616,4.37151954 9.44532376,4.55120726 L10.3125123,6.27777182 L13.1953282,6.27777182 C13.6093912,5.65277107 14.0000167,4.83245759 14.0000167,3.93401902 L14.0000167,3.93401902 Z" id="fa-heartbeat"></path>
            </g>
        </g>
    </g>
</svg>