<?xml version="1.0" encoding="UTF-8"?>
<svg width="149px" height="30px" viewBox="0 0 149 30" version="1.1" xmlns="http://www.w3.org/2000/svg" xmlns:xlink="http://www.w3.org/1999/xlink">
    <!-- Generator: Sketch 46.2 (44496) - http://www.bohemiancoding.com/sketch -->
    <title>logo copy</title>
    <desc>Created with Sketch.</desc>
    <defs>
        <polygon id="path-1" points="10.3261515 30 0.0903030303 30 0.0903030303 0.546 20.562 0.546 20.562 30"></polygon>
    </defs>
    <g id="dashboards-preview" stroke="none" stroke-width="1" fill="none" fill-rule="evenodd">
        <g id="1920" transform="translate(-50.000000, -19.000000)">
            <g id="logo-copy" transform="translate(50.000000, 19.000000)">
                <g id="Group-3">
                    <mask id="mask-2" fill="white">
                        <use xlink:href="#path-1"></use>
                    </mask>
                    <g id="Clip-2"></g>
                    <path d="M17.7114343,15.816 C16.8686061,15.2265 15.9038687,14.766 14.841303,14.4435 C13.8193737,14.1345 12.7447677,13.866 11.6475859,13.6455 C10.7219798,13.4625 9.79637374,13.2585 8.89183838,13.0425 C8.02793939,12.837 7.25283838,12.552 6.58760606,12.1935 C5.95247475,11.8515 5.43022222,11.3865 5.03890909,10.8135 C4.65813131,10.254 4.46548485,9.498 4.46548485,8.565 C4.46548485,7.614 4.64007071,6.795 4.98322222,6.132 C5.33088889,5.4645 5.79293939,4.9065 6.36034343,4.476 C6.93376768,4.0395 7.62007071,3.7095 8.39818182,3.4965 C9.19585859,3.279 10.0281515,3.168 10.8739899,3.168 C12.1201717,3.168 13.3302323,3.339 14.4725657,3.6765 C15.6239293,4.0155 16.7361616,4.4925 17.7776566,5.0925 L18.1328485,5.295 L19.5852222,2.979 L19.2315354,2.754 C16.927303,1.2885 14.1369394,0.546 10.9341919,0.546 C9.5450303,0.546 8.27326263,0.729 7.15350505,1.092 C6.02471717,1.458 5.04191919,1.995 4.23220202,2.688 C3.41646465,3.387 2.77832323,4.2465 2.33583838,5.241 C1.89485859,6.234 1.67211111,7.353 1.67211111,8.565 C1.67211111,9.984 1.94452525,11.1585 2.48182828,12.054 C3.01311111,12.942 3.7129596,13.6695 4.56180808,14.214 C5.39410101,14.748 6.34830303,15.159 7.39882828,15.438 C8.42978788,15.7125 9.48482828,15.945 10.5323434,16.1325 C11.3721616,16.2885 12.2526162,16.497 13.1496263,16.749 C14.0180404,16.9965 14.8081919,17.334 15.4975051,17.754 C16.1672525,18.162 16.7226162,18.702 17.1470404,19.359 C17.5594242,20.001 17.7686263,20.856 17.7686263,21.9 C17.7686263,22.8225 17.5880202,23.6325 17.2298182,24.309 C16.8701111,24.9885 16.3689293,25.5555 15.7383131,25.9995 C15.0941515,26.4525 14.3160404,26.799 13.4235455,27.027 C12.5175051,27.2595 11.5301919,27.3765 10.488697,27.3765 C8.91742424,27.3765 7.39431313,27.1395 5.9569899,26.67 C4.51966667,26.202 3.18167677,25.5285 1.97763636,24.6675 L1.63749495,24.4245 L0,26.6415 L0.349171717,26.8905 C1.81057576,27.936 3.40743434,28.725 5.09459596,29.235 C6.77423232,29.742 8.54868687,30 10.3667879,30 C11.9154848,30 13.3272222,29.8095 14.5643737,29.436 C15.8135657,29.058 16.895697,28.5195 17.7836768,27.8295 C18.685202,27.1305 19.3805354,26.271 19.8531212,25.272 C20.322697,24.2775 20.562,23.1555 20.562,21.9405 C20.562,20.4225 20.3001212,19.1595 19.7853939,18.186 C19.2706667,17.2155 18.5723232,16.4175 17.7114343,15.816" id="Fill-1" fill="#545F5D" mask="url(#mask-2)"></path>
                </g>
                <path d="M46.5451919,0.7875 L40.1035758,14.283 L36.6223939,21.588 C36.1136869,20.481 35.6004646,19.386 35.0842323,18.3045 C34.4460909,16.9695 33.8019293,15.6285 33.1502424,14.283 L26.6845455,0.7875 L24.1289697,0.7875 L24.1289697,29.7585 L26.759798,29.7585 L26.759798,7.2165 L30.2605455,14.4435 L35.4951111,25.353 L37.6533535,25.353 L42.8894242,14.5245 L46.3480303,7.245 L46.3480303,29.7585 L49.0601313,29.7585 L49.0601313,0.7875 L46.5451919,0.7875" id="Fill-4" fill="#545F5D"></path>
                <path d="M147.949475,18.186 C147.434747,17.2155 146.737909,16.4175 145.875515,15.816 C145.034192,15.2265 144.067949,14.766 143.006889,14.445 C141.983455,14.1345 140.908848,13.866 139.811667,13.6455 C138.884556,13.461 137.957444,13.2585 137.057424,13.0425 C136.19202,12.837 135.416919,12.552 134.753192,12.1935 C134.116556,11.8515 133.594303,11.3865 133.20299,10.8135 C132.823717,10.254 132.629566,9.498 132.629566,8.565 C132.629566,7.6125 132.804152,6.7935 133.148808,6.132 C133.49497,5.4645 133.95702,4.908 134.524424,4.476 C135.099354,4.0395 135.784152,3.7095 136.563768,3.4965 C137.359939,3.279 138.193737,3.168 139.039576,3.168 C140.284253,3.168 141.495818,3.339 142.636646,3.6765 C143.786505,4.0155 144.898737,4.4925 145.943242,5.0925 L146.296929,5.295 L147.749303,2.979 L147.395616,2.754 C145.092889,1.2885 142.30102,0.546 139.099778,0.546 C137.709111,0.546 136.438848,0.729 135.319091,1.092 C134.188798,1.458 133.206,1.995 132.396283,2.688 C131.580545,3.387 130.943909,4.2465 130.501424,5.241 C130.060444,6.234 129.836192,7.3515 129.836192,8.565 C129.836192,9.984 130.108606,11.1585 130.645909,12.054 C131.177192,12.942 131.878545,13.6695 132.727394,14.214 C133.559687,14.748 134.513889,15.159 135.564414,15.438 C136.593869,15.7125 137.650414,15.945 138.696424,16.1325 C139.536242,16.2885 140.418202,16.497 141.315212,16.749 C142.183626,16.9965 142.972273,17.334 143.663091,17.754 C144.332838,18.162 144.886697,18.7035 145.311121,19.359 C145.723505,20.001 145.932707,20.856 145.932707,21.9 C145.932707,22.824 145.750596,23.634 145.393899,24.309 C145.035697,24.987 144.534515,25.5555 143.902394,25.9995 C143.259737,26.4525 142.481626,26.799 141.587626,27.027 C140.683091,27.2595 139.695778,27.3765 138.652778,27.3765 C137.08301,27.3765 135.558394,27.1395 134.122576,26.67 C132.683747,26.202 131.345758,25.5285 130.143222,24.6675 L129.803081,24.4245 L128.164081,26.6415 L128.513253,26.8905 C129.976162,27.936 131.57302,28.725 133.258677,29.235 C134.938313,29.742 136.712768,30 138.532374,30 C140.079566,30 141.491303,29.8095 142.728455,29.436 C143.976141,29.0595 145.059778,28.5195 145.949263,27.8295 C146.849283,27.1305 147.546121,26.271 148.017202,25.272 C148.488283,24.2775 148.727586,23.157 148.727586,21.9405 C148.727586,20.4225 148.465707,19.1595 147.949475,18.186" id="Fill-5" fill="#545F5D"></path>
                <polyline id="Fill-6" fill="#545F5D" points="119.547667 3.2895 119.547667 0.7875 99.9278283 0.7875 99.9278283 3.2895 108.441899 3.2895 108.441899 7.1115 111.155505 6.4005 111.155505 3.2895 119.547667 3.2895"></polyline>
                <polyline id="Fill-7" fill="#545F5D" points="108.441899 30 111.155505 30 111.155505 9.462 108.441899 10.383 108.441899 30"></polyline>
                <polyline id="Fill-8" fill="#77A040" points="125.170535 0.048 122.458434 0.768 122.458434 3.462 125.170535 2.7195 125.170535 0.048"></polyline>
                <polyline id="Fill-9" fill="#545F5D" points="122.458434 29.7585 125.170535 29.7585 125.170535 4.6965 122.458434 5.619 122.458434 29.7585"></polyline>
                <path d="M97.6100505,5.2605 C97.1811111,4.308 96.5866162,3.492 95.8416162,2.8335 C95.1011313,2.181 94.1920808,1.6695 93.1415556,1.3155 C92.1030707,0.9645 90.9667576,0.7875 89.7627172,0.7875 L78.432697,0.7875 L78.432697,15.171 L81.2260707,14.439 L81.2260707,3.2895 L89.2946465,3.2895 C90.084798,3.2895 90.8704343,3.393 91.6289798,3.5985 C92.3664545,3.7995 93.0196465,4.11 93.5674848,4.5225 C94.1062929,4.9275 94.5472727,5.4645 94.8798889,6.12 C95.2125051,6.774 95.3810707,7.575 95.3810707,8.5035 C95.3810707,9.1725 95.2742121,9.825 95.0589899,10.4955 L94.943101,10.845 L98.1217677,10.0125 C98.1940101,9.5445 98.2557172,8.9505 98.2557172,8.484 C98.2557172,7.2975 98.0374848,6.213 97.6100505,5.2605" id="Fill-10" fill="#545F5D"></path>
                <polyline id="Fill-11" fill="#545F5D" points="78.432697 29.7585 81.2260707 29.7585 81.2260707 19.89 78.432697 20.8395 78.432697 29.7585"></polyline>
                <polyline id="Fill-12" fill="#545F5D" points="88.9364444 17.2695 94.9340707 29.7585 98.1458485 29.7585 91.5582424 16.3785 88.9364444 17.2695"></polyline>
                <path d="M66.1710505,21.552 C66.1695455,21.5535 66.067202,21.594 66.0265657,21.6075 C65.9874343,21.621 65.9874343,21.621 65.946798,21.633 C65.9046566,21.6465 65.8534848,21.6615 65.8158586,21.6705 C65.7797374,21.6795 65.7812424,21.6795 65.7526465,21.687 C65.7225455,21.693 65.6352525,21.7155 65.6096667,21.72 C65.5840808,21.726 65.4772222,21.7485 65.4486263,21.7545 C65.4350808,21.7575 65.4200303,21.7605 65.4064848,21.762 C65.3974545,21.765 65.3628384,21.771 65.3297273,21.7755 C65.3628384,21.7515 65.3959495,21.726 65.4275556,21.7005 C65.4426061,21.687 65.4576566,21.6735 65.4727071,21.6615 C65.4802323,21.654 65.4877576,21.648 65.4952828,21.642 C65.5028081,21.6345 65.5103333,21.627 65.5178586,21.621 C65.531404,21.6075 65.5464545,21.594 65.56,21.5805 C65.5750505,21.567 65.5870909,21.552 65.6006364,21.5385 C65.7074949,21.426 65.7917778,21.3075 65.8549899,21.195 C65.918202,21.0825 65.9588384,20.976 65.9874343,20.8875 C65.9934545,20.8665 66.0130202,20.8005 66.0130202,20.7945 C66.0160303,20.784 66.0386061,20.6805 66.0386061,20.6805 C66.0431212,20.64 66.0461313,20.622 66.0461313,20.622 C66.0792424,20.3685 65.9016465,20.136 65.6472929,20.1015 C65.4170202,20.0715 65.2048081,20.214 65.1400909,20.4285 C65.1400909,20.4285 65.1355758,20.448 65.1250404,20.481 C65.1145051,20.5125 65.1039697,20.5305 65.0889192,20.562 C65.0753737,20.592 65.0482828,20.64 65.0151717,20.6835 C64.9820606,20.7285 64.9399192,20.7765 64.8842323,20.8245 C64.8586465,20.8485 64.8270404,20.871 64.7939293,20.895 C64.7593131,20.919 64.724697,20.943 64.6825556,20.964 C64.6479394,20.9835 64.6103131,21.003 64.5696768,21.0195 C64.3168283,20.8725 64.0218384,20.7885 63.7072828,20.7885 C63.3927273,20.7885 63.0977374,20.8725 62.8448889,21.0195 C62.8042525,21.003 62.7666263,20.9835 62.7320101,20.964 C62.6913737,20.943 62.6552525,20.919 62.6206364,20.895 C62.5875253,20.871 62.5574242,20.8485 62.5303333,20.8245 C62.4761515,20.7765 62.4325051,20.7285 62.400899,20.6835 C62.3677879,20.64 62.340697,20.592 62.3256465,20.562 C62.310596,20.5305 62.3015657,20.5125 62.2895253,20.481 C62.2789899,20.448 62.2744747,20.4285 62.2744747,20.4285 C62.2112626,20.214 61.9975455,20.0715 61.7687778,20.1015 C61.5144242,20.136 61.3353232,20.3685 61.3684343,20.622 C61.3684343,20.622 61.3714444,20.64 61.3759596,20.676 C61.3759596,20.676 61.3985354,20.784 61.4015455,20.7945 C61.4030505,20.8005 61.4211111,20.8665 61.4271313,20.8875 C61.4557273,20.976 61.4963636,21.0825 61.5595758,21.195 C61.6227879,21.3075 61.7070707,21.426 61.8139293,21.5385 C61.8274747,21.552 61.8410202,21.567 61.8545657,21.5805 C61.8681111,21.594 61.8831616,21.6075 61.8982121,21.621 C61.9042323,21.627 61.9117576,21.6345 61.9192828,21.642 C61.9268081,21.648 61.9343333,21.654 61.9418586,21.6615 C61.9569091,21.6735 61.9719596,21.687 61.9885152,21.7005 C62.0201212,21.726 62.0517273,21.7515 62.0863434,21.7755 C62.0517273,21.771 62.0171111,21.765 62.0080808,21.762 C61.9945354,21.7605 61.9794848,21.7575 61.9659394,21.7545 C61.9373434,21.7485 61.8304848,21.726 61.804899,21.72 C61.7793131,21.7155 61.6920202,21.693 61.6634242,21.687 C61.6333232,21.6795 61.6363333,21.6795 61.5987071,21.6705 C61.5610808,21.6615 61.5099091,21.6465 61.4692727,21.633 C61.4271313,21.621 61.4271313,21.621 61.388,21.6075 C61.3488687,21.594 61.2450202,21.5535 61.2450202,21.5535 C61.0358182,21.4725 60.7950101,21.552 60.6776162,21.75 C60.5466768,21.9705 60.6204242,22.254 60.8416667,22.3845 C60.8416667,22.3845 60.8597273,22.395 60.8943434,22.4145 C60.912404,22.425 60.9680909,22.4565 60.969596,22.458 C60.9741111,22.4595 60.999697,22.473 61.0102323,22.4775 C61.0282929,22.4865 61.0478586,22.497 61.0689293,22.5075 C61.0794646,22.512 61.1291313,22.536 61.1351515,22.5375 C61.1562222,22.5465 61.178798,22.557 61.2013737,22.5675 C61.2254545,22.5765 61.327798,22.6185 61.3548889,22.629 C61.3819798,22.6395 61.4993737,22.68 61.5294747,22.6905 C61.5445253,22.695 61.6890101,22.74 61.7236263,22.7505 C61.7401818,22.755 61.8094141,22.773 61.8259697,22.7775 C61.8560707,22.785 61.9448687,22.8075 61.9779798,22.815 C61.9659394,22.8225 61.955404,22.83 61.9433636,22.836 C61.776303,22.944 61.625798,23.0685 61.5023838,23.2095 C61.4707778,23.2455 61.4421818,23.2785 61.4150909,23.316 C61.4015455,23.334 61.3503737,23.4075 61.3383333,23.4255 C61.3323131,23.4345 61.2826465,23.517 61.2736162,23.535 C61.2525455,23.571 61.2359899,23.6085 61.2194343,23.6445 C61.2149192,23.6535 61.1833131,23.733 61.1772929,23.751 C61.1622424,23.7855 61.1547172,23.811 61.1441818,23.8515 C61.1336465,23.8935 61.1231111,23.931 61.120101,23.9475 C61.1170909,23.9625 61.1110707,23.982 61.1065556,24.0135 C61.1020404,24.0435 61.09,24.144 61.09,24.144 C61.0884949,24.162 61.0824747,24.204 61.0824747,24.279 C61.0824747,24.354 61.0854848,24.3615 61.0854848,24.3615 C61.0960202,24.585 61.267596,24.7755 61.4978687,24.801 C61.7522222,24.8295 61.9824949,24.6465 62.0110909,24.393 C62.0110909,24.393 62.0171111,24.333 62.0216263,24.3045 C62.0246364,24.282 62.0336667,24.2535 62.044202,24.219 C62.0547374,24.186 62.0803232,24.132 62.1119293,24.0795 C62.1450404,24.0255 62.221798,23.9385 62.251899,23.91 C62.282,23.8815 62.3196263,23.8515 62.3301616,23.844 C62.3391919,23.838 62.372303,23.814 62.3888586,23.8005 C62.4069192,23.7885 62.4279899,23.778 62.4565859,23.7585 C62.4686263,23.7525 62.4881919,23.7405 62.5137778,23.7285 C62.8223131,24.027 63.2437273,24.21 63.7072828,24.21 C64.1723434,24.21 64.5922525,24.027 64.9022929,23.7285 C64.9263737,23.7405 64.9474444,23.7525 64.9579798,23.7585 C64.9880808,23.778 65.0091515,23.7885 65.0257071,23.8005 C65.0422626,23.814 65.0753737,23.838 65.0859091,23.844 C65.0949394,23.8515 65.1340707,23.8815 65.1626667,23.91 C65.1927677,23.9385 65.2695253,24.0255 65.3026364,24.0795 C65.3342424,24.132 65.3598283,24.186 65.3703636,24.219 C65.380899,24.2535 65.3899293,24.282 65.3929394,24.3045 C65.3974545,24.333 65.4034747,24.393 65.4034747,24.393 C65.4320707,24.6465 65.6623434,24.8295 65.916697,24.801 C66.1469697,24.7755 66.3200505,24.585 66.3290808,24.3615 C66.3290808,24.3615 66.3320909,24.354 66.3320909,24.279 C66.3320909,24.204 66.3275758,24.162 66.3260707,24.15 C66.3260707,24.15 66.3140303,24.0435 66.3080101,24.0135 C66.3034949,23.982 66.2974747,23.9625 66.2944646,23.9475 C66.2914545,23.931 66.2824242,23.8935 66.2718889,23.8515 C66.2598485,23.811 66.2523232,23.7855 66.2387778,23.751 C66.2312525,23.733 66.1996465,23.6535 66.1951313,23.6445 C66.1785758,23.6085 66.1620202,23.571 66.1424545,23.535 C66.1319192,23.517 66.0822525,23.4345 66.0762323,23.4255 C66.065697,23.4075 66.0130202,23.334 66.0009798,23.316 C65.9738889,23.2785 65.9437879,23.2455 65.9136869,23.2095 C65.7902727,23.0685 65.6382626,22.944 65.471202,22.836 C65.4606667,22.83 65.4486263,22.8225 65.4365859,22.815 C65.469697,22.8075 65.5584949,22.785 65.588596,22.7775 C65.6051515,22.773 65.6743838,22.755 65.6924444,22.7505 C65.7255556,22.74 65.8700404,22.695 65.8850909,22.6905 C65.916697,22.68 66.0325859,22.6395 66.0596768,22.629 C66.0867677,22.6185 66.1891111,22.5765 66.2131919,22.5675 C66.2372727,22.557 66.2598485,22.5465 66.2809192,22.5375 C66.2854343,22.536 66.335101,22.512 66.3456364,22.5075 C66.3667071,22.497 66.3862727,22.4865 66.4058384,22.4775 C66.4148687,22.473 66.4404545,22.4595 66.4449697,22.458 C66.4464747,22.4565 66.5036667,22.425 66.5202222,22.4145 C66.5548384,22.395 66.572899,22.3845 66.572899,22.3845 C66.7941414,22.254 66.8678889,21.9705 66.7369495,21.75 C66.6210606,21.552 66.3787475,21.4725 66.1710505,21.552 Z" id="Fill-13" fill="#77A040"></path>
                <path d="M65.1054747,1.065 L65.0031313,0.7875 L62.4234747,0.7875 L51.8580202,29.7585 L54.7898586,29.7585 L57.8857475,20.961 C58.021202,20.607 58.2514747,19.971 58.5780707,19.05 C58.9031616,18.135 59.273404,17.091 59.6933131,15.9195 L61.029798,12.1815 C61.5038889,10.8615 61.9448687,9.6135 62.3497273,8.439 C62.7545859,7.269 63.1127879,6.255 63.4228283,5.394 C63.5281818,5.1 63.623,4.8405 63.7042727,4.6125 C64.0037778,5.4735 64.3062929,6.3255 64.6118182,7.1715 C65.0317273,8.331 65.4576566,9.504 65.8896061,10.686 L68.4165859,17.796 L70.9902222,17.1195 L70.2738182,15.1275 C68.5565556,10.467 66.8347778,5.7795 65.1054747,1.065" id="Fill-14" fill="#545F5D"></path>
                <path d="M73.8949697,25.05 L73.0235455,22.677 L70.4393737,23.55 L72.6382525,29.7585 L75.6077172,29.7585 L75.4045354,29.1915 C74.9018485,27.804 74.3991616,26.427 73.8949697,25.05" id="Fill-15" fill="#545F5D"></path>
            </g>
        </g>
    </g>
</svg>