<?xml version="1.0" encoding="UTF-8"?>
<svg width="25px" height="30px" viewBox="0 0 25 30" version="1.1" xmlns="http://www.w3.org/2000/svg" xmlns:xlink="http://www.w3.org/1999/xlink">
    <!-- Generator: Sketch 46.2 (44496) - http://www.bohemiancoding.com/sketch -->
    <title>mini-logo copy</title>
    <desc>Created with Sketch.</desc>
    <defs></defs>
    <g id="dashboards-preview" stroke="none" stroke-width="1" fill="none" fill-rule="evenodd">
        <g id="1199" transform="translate(-13.000000, -22.000000)">
            <g id="mini-logo-copy" transform="translate(13.000000, 22.000000)">
                <g id="Group-2">
                    <path d="M15.1710505,21.552 C15.1695455,21.5535 15.067202,21.594 15.0265657,21.6075 C14.9874343,21.621 14.9874343,21.621 14.946798,21.633 C14.9046566,21.6465 14.8534848,21.6615 14.8158586,21.6705 C14.7797374,21.6795 14.7812424,21.6795 14.7526465,21.687 C14.7225455,21.693 14.6352525,21.7155 14.6096667,21.72 C14.5840808,21.726 14.4772222,21.7485 14.4486263,21.7545 C14.4350808,21.7575 14.4200303,21.7605 14.4064848,21.762 C14.3974545,21.765 14.3628384,21.771 14.3297273,21.7755 C14.3628384,21.7515 14.3959495,21.726 14.4275556,21.7005 C14.4426061,21.687 14.4576566,21.6735 14.4727071,21.6615 C14.4802323,21.654 14.4877576,21.648 14.4952828,21.642 C14.5028081,21.6345 14.5103333,21.627 14.5178586,21.621 C14.531404,21.6075 14.5464545,21.594 14.56,21.5805 C14.5750505,21.567 14.5870909,21.552 14.6006364,21.5385 C14.7074949,21.426 14.7917778,21.3075 14.8549899,21.195 C14.918202,21.0825 14.9588384,20.976 14.9874343,20.8875 C14.9934545,20.8665 15.0130202,20.8005 15.0130202,20.7945 C15.0160303,20.784 15.0386061,20.6805 15.0386061,20.6805 C15.0431212,20.64 15.0461313,20.622 15.0461313,20.622 C15.0792424,20.3685 14.9016465,20.136 14.6472929,20.1015 C14.4170202,20.0715 14.2048081,20.214 14.1400909,20.4285 C14.1400909,20.4285 14.1355758,20.448 14.1250404,20.481 C14.1145051,20.5125 14.1039697,20.5305 14.0889192,20.562 C14.0753737,20.592 14.0482828,20.64 14.0151717,20.6835 C13.9820606,20.7285 13.9399192,20.7765 13.8842323,20.8245 C13.8586465,20.8485 13.8270404,20.871 13.7939293,20.895 C13.7593131,20.919 13.724697,20.943 13.6825556,20.964 C13.6479394,20.9835 13.6103131,21.003 13.5696768,21.0195 C13.3168283,20.8725 13.0218384,20.7885 12.7072828,20.7885 C12.3927273,20.7885 12.0977374,20.8725 11.8448889,21.0195 C11.8042525,21.003 11.7666263,20.9835 11.7320101,20.964 C11.6913737,20.943 11.6552525,20.919 11.6206364,20.895 C11.5875253,20.871 11.5574242,20.8485 11.5303333,20.8245 C11.4761515,20.7765 11.4325051,20.7285 11.400899,20.6835 C11.3677879,20.64 11.340697,20.592 11.3256465,20.562 C11.310596,20.5305 11.3015657,20.5125 11.2895253,20.481 C11.2789899,20.448 11.2744747,20.4285 11.2744747,20.4285 C11.2112626,20.214 10.9975455,20.0715 10.7687778,20.1015 C10.5144242,20.136 10.3353232,20.3685 10.3684343,20.622 C10.3684343,20.622 10.3714444,20.64 10.3759596,20.676 C10.3759596,20.676 10.3985354,20.784 10.4015455,20.7945 C10.4030505,20.8005 10.4211111,20.8665 10.4271313,20.8875 C10.4557273,20.976 10.4963636,21.0825 10.5595758,21.195 C10.6227879,21.3075 10.7070707,21.426 10.8139293,21.5385 C10.8274747,21.552 10.8410202,21.567 10.8545657,21.5805 C10.8681111,21.594 10.8831616,21.6075 10.8982121,21.621 C10.9042323,21.627 10.9117576,21.6345 10.9192828,21.642 C10.9268081,21.648 10.9343333,21.654 10.9418586,21.6615 C10.9569091,21.6735 10.9719596,21.687 10.9885152,21.7005 C11.0201212,21.726 11.0517273,21.7515 11.0863434,21.7755 C11.0517273,21.771 11.0171111,21.765 11.0080808,21.762 C10.9945354,21.7605 10.9794848,21.7575 10.9659394,21.7545 C10.9373434,21.7485 10.8304848,21.726 10.804899,21.72 C10.7793131,21.7155 10.6920202,21.693 10.6634242,21.687 C10.6333232,21.6795 10.6363333,21.6795 10.5987071,21.6705 C10.5610808,21.6615 10.5099091,21.6465 10.4692727,21.633 C10.4271313,21.621 10.4271313,21.621 10.388,21.6075 C10.3488687,21.594 10.2450202,21.5535 10.2450202,21.5535 C10.0358182,21.4725 9.7950101,21.552 9.67761616,21.75 C9.54667677,21.9705 9.62042424,22.254 9.84166667,22.3845 C9.84166667,22.3845 9.85972727,22.395 9.89434343,22.4145 C9.91240404,22.425 9.96809091,22.4565 9.96959596,22.458 C9.97411111,22.4595 9.99969697,22.473 10.0102323,22.4775 C10.0282929,22.4865 10.0478586,22.497 10.0689293,22.5075 C10.0794646,22.512 10.1291313,22.536 10.1351515,22.5375 C10.1562222,22.5465 10.178798,22.557 10.2013737,22.5675 C10.2254545,22.5765 10.327798,22.6185 10.3548889,22.629 C10.3819798,22.6395 10.4993737,22.68 10.5294747,22.6905 C10.5445253,22.695 10.6890101,22.74 10.7236263,22.7505 C10.7401818,22.755 10.8094141,22.773 10.8259697,22.7775 C10.8560707,22.785 10.9448687,22.8075 10.9779798,22.815 C10.9659394,22.8225 10.955404,22.83 10.9433636,22.836 C10.776303,22.944 10.625798,23.0685 10.5023838,23.2095 C10.4707778,23.2455 10.4421818,23.2785 10.4150909,23.316 C10.4015455,23.334 10.3503737,23.4075 10.3383333,23.4255 C10.3323131,23.4345 10.2826465,23.517 10.2736162,23.535 C10.2525455,23.571 10.2359899,23.6085 10.2194343,23.6445 C10.2149192,23.6535 10.1833131,23.733 10.1772929,23.751 C10.1622424,23.7855 10.1547172,23.811 10.1441818,23.8515 C10.1336465,23.8935 10.1231111,23.931 10.120101,23.9475 C10.1170909,23.9625 10.1110707,23.982 10.1065556,24.0135 C10.1020404,24.0435 10.09,24.144 10.09,24.144 C10.0884949,24.162 10.0824747,24.204 10.0824747,24.279 C10.0824747,24.354 10.0854848,24.3615 10.0854848,24.3615 C10.0960202,24.585 10.267596,24.7755 10.4978687,24.801 C10.7522222,24.8295 10.9824949,24.6465 11.0110909,24.393 C11.0110909,24.393 11.0171111,24.333 11.0216263,24.3045 C11.0246364,24.282 11.0336667,24.2535 11.044202,24.219 C11.0547374,24.186 11.0803232,24.132 11.1119293,24.0795 C11.1450404,24.0255 11.221798,23.9385 11.251899,23.91 C11.282,23.8815 11.3196263,23.8515 11.3301616,23.844 C11.3391919,23.838 11.372303,23.814 11.3888586,23.8005 C11.4069192,23.7885 11.4279899,23.778 11.4565859,23.7585 C11.4686263,23.7525 11.4881919,23.7405 11.5137778,23.7285 C11.8223131,24.027 12.2437273,24.21 12.7072828,24.21 C13.1723434,24.21 13.5922525,24.027 13.9022929,23.7285 C13.9263737,23.7405 13.9474444,23.7525 13.9579798,23.7585 C13.9880808,23.778 14.0091515,23.7885 14.0257071,23.8005 C14.0422626,23.814 14.0753737,23.838 14.0859091,23.844 C14.0949394,23.8515 14.1340707,23.8815 14.1626667,23.91 C14.1927677,23.9385 14.2695253,24.0255 14.3026364,24.0795 C14.3342424,24.132 14.3598283,24.186 14.3703636,24.219 C14.380899,24.2535 14.3899293,24.282 14.3929394,24.3045 C14.3974545,24.333 14.4034747,24.393 14.4034747,24.393 C14.4320707,24.6465 14.6623434,24.8295 14.916697,24.801 C15.1469697,24.7755 15.3200505,24.585 15.3290808,24.3615 C15.3290808,24.3615 15.3320909,24.354 15.3320909,24.279 C15.3320909,24.204 15.3275758,24.162 15.3260707,24.15 C15.3260707,24.15 15.3140303,24.0435 15.3080101,24.0135 C15.3034949,23.982 15.2974747,23.9625 15.2944646,23.9475 C15.2914545,23.931 15.2824242,23.8935 15.2718889,23.8515 C15.2598485,23.811 15.2523232,23.7855 15.2387778,23.751 C15.2312525,23.733 15.1996465,23.6535 15.1951313,23.6445 C15.1785758,23.6085 15.1620202,23.571 15.1424545,23.535 C15.1319192,23.517 15.0822525,23.4345 15.0762323,23.4255 C15.065697,23.4075 15.0130202,23.334 15.0009798,23.316 C14.9738889,23.2785 14.9437879,23.2455 14.9136869,23.2095 C14.7902727,23.0685 14.6382626,22.944 14.471202,22.836 C14.4606667,22.83 14.4486263,22.8225 14.4365859,22.815 C14.469697,22.8075 14.5584949,22.785 14.588596,22.7775 C14.6051515,22.773 14.6743838,22.755 14.6924444,22.7505 C14.7255556,22.74 14.8700404,22.695 14.8850909,22.6905 C14.916697,22.68 15.0325859,22.6395 15.0596768,22.629 C15.0867677,22.6185 15.1891111,22.5765 15.2131919,22.5675 C15.2372727,22.557 15.2598485,22.5465 15.2809192,22.5375 C15.2854343,22.536 15.335101,22.512 15.3456364,22.5075 C15.3667071,22.497 15.3862727,22.4865 15.4058384,22.4775 C15.4148687,22.473 15.4404545,22.4595 15.4449697,22.458 C15.4464747,22.4565 15.5036667,22.425 15.5202222,22.4145 C15.5548384,22.395 15.572899,22.3845 15.572899,22.3845 C15.7941414,22.254 15.8678889,21.9705 15.7369495,21.75 C15.6210606,21.552 15.3787475,21.4725 15.1710505,21.552 Z" id="Fill-13" fill="#77A040"></path>
                    <path d="M14.1054747,1.065 L14.0031313,0.7875 L11.4234747,0.7875 L0.858020202,29.7585 L3.78985859,29.7585 L6.88574747,20.961 C7.02120202,20.607 7.25147475,19.971 7.57807071,19.05 C7.90316162,18.135 8.27340404,17.091 8.69331313,15.9195 L10.029798,12.1815 C10.5038889,10.8615 10.9448687,9.6135 11.3497273,8.439 C11.7545859,7.269 12.1127879,6.255 12.4228283,5.394 C12.5281818,5.1 12.623,4.8405 12.7042727,4.6125 C13.0037778,5.4735 13.3062929,6.3255 13.6118182,7.1715 C14.0317273,8.331 14.4576566,9.504 14.8896061,10.686 L17.4165859,17.796 L19.9902222,17.1195 L19.2738182,15.1275 C17.5565556,10.467 15.8347778,5.7795 14.1054747,1.065" id="Fill-14" fill="#545F5D"></path>
                    <path d="M22.8949697,25.05 L22.0235455,22.677 L19.4393737,23.55 L21.6382525,29.7585 L24.6077172,29.7585 L24.4045354,29.1915 C23.9018485,27.804 23.3991616,26.427 22.8949697,25.05" id="Fill-15" fill="#545F5D"></path>
                </g>
            </g>
        </g>
    </g>
</svg>