<?xml version="1.0" encoding="UTF-8"?>
<svg width="14px" height="14px" viewBox="0 0 14 14" version="1.1" xmlns="http://www.w3.org/2000/svg" xmlns:xlink="http://www.w3.org/1999/xlink">
    <!-- Generator: Sketch 46.2 (44496) - http://www.bohemiancoding.com/sketch -->
    <title>Shape Copy 6</title>
    <desc>Created with Sketch.</desc>
    <defs></defs>
    <g id="dashboards-preview" stroke="none" stroke-width="1" fill="none" fill-rule="evenodd">
        <g id="1600_1" transform="translate(-22.000000, -152.000000)" fill="#FFFFFF">
            <path d="M29,152 C25.15,152 22,155.15 22,159 C22,162.85 25.15,166 29,166 C32.85,166 36,162.85 36,159 C36,155.15 32.85,152 29,152 L29,152 Z M33.83,156.2 L31.8,156.2 C31.59,155.29 31.24,154.52 30.82,153.68 C32.08,154.17 33.2,155.01 33.83,156.2 L33.83,156.2 Z M29,153.4 C29.56,154.24 30.05,155.15 30.33,156.2 L27.67,156.2 C27.95,155.22 28.44,154.24 29,153.4 L29,153.4 Z M23.61,160.4 C23.47,159.98 23.4,159.49 23.4,159 C23.4,158.51 23.47,158.02 23.61,157.6 L25.99,157.6 C25.92,158.09 25.92,158.51 25.92,159 C25.92,159.49 25.99,159.91 25.99,160.4 L23.61,160.4 L23.61,160.4 Z M24.17,161.8 L26.2,161.8 C26.41,162.71 26.76,163.48 27.18,164.32 C25.92,163.83 24.8,162.99 24.17,161.8 L24.17,161.8 Z M26.2,156.2 L24.17,156.2 C24.87,155.01 25.92,154.17 27.18,153.68 C26.76,154.52 26.41,155.29 26.2,156.2 L26.2,156.2 Z M29,164.6 C28.44,163.76 27.95,162.85 27.67,161.8 L30.33,161.8 C30.05,162.78 29.56,163.76 29,164.6 L29,164.6 Z M30.61,160.4 L27.39,160.4 C27.32,159.91 27.25,159.49 27.25,159 C27.25,158.51 27.32,158.09 27.39,157.6 L30.68,157.6 C30.75,158.09 30.82,158.51 30.82,159 C30.82,159.49 30.68,159.91 30.61,160.4 L30.61,160.4 Z M30.82,164.32 C31.24,163.55 31.59,162.71 31.8,161.8 L33.83,161.8 C33.2,162.99 32.08,163.83 30.82,164.32 L30.82,164.32 Z M32.08,160.4 C32.15,159.91 32.15,159.49 32.15,159 C32.15,158.51 32.08,158.09 32.08,157.6 L34.46,157.6 C34.6,158.02 34.67,158.51 34.67,159 C34.67,159.49 34.6,159.98 34.46,160.4 L32.08,160.4 L32.08,160.4 Z" id="Shape-Copy-6"></path>
        </g>
    </g>
</svg>