<?xml version="1.0" encoding="UTF-8"?>
<svg width="15px" height="15px" viewBox="0 0 15 15" version="1.1" xmlns="http://www.w3.org/2000/svg" xmlns:xlink="http://www.w3.org/1999/xlink">
    <!-- Generator: Sketch 46.2 (44496) - http://www.bohemiancoding.com/sketch -->
    <title>Shape</title>
    <desc>Created with Sketch.</desc>
    <defs></defs>
    <g id="dashboards-preview" stroke="none" stroke-width="1" fill="none" fill-rule="evenodd" fill-opacity="0.54">
        <g id="1600_1" transform="translate(-21.000000, -615.000000)" fill="#FFFFFF">
            <path d="M34.2142857,622.142857 L33.1428571,622.142857 L33.1428571,619.285714 C33.1428571,618.5 32.5,617.857143 31.7142857,617.857143 L28.8571429,617.857143 L28.8571429,616.785714 C28.8571429,615.785714 28.0714286,615 27.0714286,615 C26.0714286,615 25.2857143,615.785714 25.2857143,616.785714 L25.2857143,617.857143 L22.4285714,617.857143 C21.6428571,617.857143 21,618.5 21,619.285714 L21,622 L22.0714286,622 C23.1428571,622 24,622.857143 24,623.928571 C24,625 23.1428571,625.857143 22.0714286,625.857143 L21,625.857143 L21,628.571429 C21,629.357143 21.6428571,630 22.4285714,630 L25.1428571,630 L25.1428571,628.928571 C25.1428571,627.857143 26,627 27.0714286,627 C28.1428571,627 29,627.857143 29,628.928571 L29,630 L31.7142857,630 C32.5,630 33.1428571,629.357143 33.1428571,628.571429 L33.1428571,625.714286 L34.2142857,625.714286 C35.2142857,625.714286 36,624.928571 36,623.928571 C36,622.928571 35.2142857,622.142857 34.2142857,622.142857 L34.2142857,622.142857 Z" id="Shape"></path>
        </g>
    </g>
</svg>