<?xml version="1.0" encoding="UTF-8"?>
<svg width="16px" height="11px" viewBox="0 0 16 11" version="1.1" xmlns="http://www.w3.org/2000/svg" xmlns:xlink="http://www.w3.org/1999/xlink">
    <!-- Generator: Sketch 46.2 (44496) - http://www.bohemiancoding.com/sketch -->
    <title>Shape Copy 4</title>
    <desc>Created with Sketch.</desc>
    <defs></defs>
    <g id="dashboards-preview" stroke="none" stroke-width="1" fill="none" fill-rule="evenodd" fill-opacity="0.54">
        <g id="1600_1" transform="translate(-20.000000, -589.000000)" fill="#FFFFFF">
            <path d="M30.9090909,593.363636 C32.1454545,593.363636 33.0909091,592.418182 33.0909091,591.181818 C33.0909091,589.945455 32.1454545,589 30.9090909,589 C29.6727273,589 28.7272727,589.945455 28.7272727,591.181818 C28.7272727,592.418182 29.6727273,593.363636 30.9090909,593.363636 L30.9090909,593.363636 Z M25.0909091,593.363636 C26.3272727,593.363636 27.2727273,592.418182 27.2727273,591.181818 C27.2727273,589.945455 26.3272727,589 25.0909091,589 C23.8545455,589 22.9090909,589.945455 22.9090909,591.181818 C22.9090909,592.418182 23.8545455,593.363636 25.0909091,593.363636 L25.0909091,593.363636 Z M25.0909091,594.818182 C23.4181818,594.818182 20,595.690909 20,597.363636 L20,599.181818 L30.1818182,599.181818 L30.1818182,597.363636 C30.1818182,595.690909 26.7636364,594.818182 25.0909091,594.818182 L25.0909091,594.818182 Z M30.9090909,594.818182 C30.6909091,594.818182 30.4727273,594.818182 30.1818182,594.890909 C31.0545455,595.472727 31.6363636,596.345455 31.6363636,597.363636 L31.6363636,599.181818 L36,599.181818 L36,597.363636 C36,595.690909 32.5818182,594.818182 30.9090909,594.818182 L30.9090909,594.818182 Z" id="Shape-Copy-4"></path>
        </g>
    </g>
</svg>