<?xml version="1.0" encoding="UTF-8"?>
<svg width="14px" height="13px" viewBox="0 0 14 13" version="1.1" xmlns="http://www.w3.org/2000/svg" xmlns:xlink="http://www.w3.org/1999/xlink">
    <!-- Generator: Sketch 46.2 (44496) - http://www.bohemiancoding.com/sketch -->
    <title>Загрузка медиапланов</title>
    <desc>Created with Sketch.</desc>
    <defs></defs>
    <g id="dashboards-preview" stroke="none" stroke-width="1" fill="none" fill-rule="evenodd">
        <g id="1600_1" transform="translate(-20.000000, -392.000000)" fill="#FFFFFF">
            <g id="Загрузка-медиапланов" transform="translate(20.000000, 392.000000)">
                <polygon id="Fill-1" points="1.00720215 3 1.00720215 3.97561973 -1.53734853e-05 3.97561973 -1.53734853e-05 8.02434419 1.00720215 8.02434419 1.00720215 8.99992783 2.28875836 8.99992783 5.19394737 9 6.0319868 8.99992783 6.0319868 8.56530472 6.03204829 3.43465919 6.0319868 3"></polygon>
                <polygon id="Fill-2" points="2 10 2.60351023 13 5 13 4.39643905 10"></polygon>
                <g id="Group-7" transform="translate(6.948815, 0.001401)">
                    <path d="M5.03656047,0.0297448749 C3.49508317,1.60184497 1.92173452,2.55513209 0.86241901,3.08108575 C0.5518648,3.23529075 0.266865092,3.36237286 0.0148134661,3.46638028 L0.0148134661,8.43877546 C0.266865092,8.54272059 0.5518648,8.66983385 0.86241901,8.82400771 C1.92173452,9.34996137 3.49508317,10.3032796 5.03656047,11.8753486 L5.03656047,0.0297448749 Z" id="Fill-3"></path>
                    <path d="M5.93553557,3.742439 L5.93553557,8.16266069 L6.13420653,8.16266069 C6.6374997,8.16266069 7.04698904,7.64517709 7.04698904,7.00908145 L7.04698904,4.8959871 C7.04698904,4.25992259 6.6374997,3.742439 6.13420653,3.742439 L5.93553557,3.742439 Z" id="Fill-5"></path>
                </g>
            </g>
        </g>
    </g>
</svg>