<?xml version="1.0" encoding="UTF-8"?>
<svg width="15px" height="15px" viewBox="0 0 15 15" version="1.1" xmlns="http://www.w3.org/2000/svg" xmlns:xlink="http://www.w3.org/1999/xlink">
    <!-- Generator: Sketch 46.2 (44496) - http://www.bohemiancoding.com/sketch -->
    <title>Конструктор отчетов</title>
    <desc>Created with Sketch.</desc>
    <defs></defs>
    <g id="dashboards-preview" stroke="none" stroke-width="1" fill="none" fill-rule="evenodd">
        <g id="1600_1" transform="translate(-21.000000, -212.000000)" fill="#FFFFFF">
            <g id="Конструктор-отчетов" transform="translate(21.000000, 212.000000)">
                <path d="M3.31405965,12.2702374 C3.31405965,12.5897748 3.04930006,12.8545344 2.72976263,12.8545344 C2.4102252,12.8545344 2.14546561,12.5897748 2.14546561,12.2702374 C2.14546561,11.9506999 2.4102252,11.6859404 2.72976263,11.6859404 C3.04930006,11.6859404 3.31405965,11.9506999 3.31405965,12.2702374 L3.31405965,12.2702374 Z M9.19354839,8.43578819 C7.99756543,7.96104687 7.03895313,7.00243457 6.56421181,5.80645161 L0.346926354,12.0237371 C0.127814973,12.2428484 0,12.5441266 0,12.8545344 C0,13.1649422 0.127814973,13.4662203 0.346926354,13.6762021 L1.31466829,14.6622033 C1.53377967,14.872185 1.83505782,15 2.14546561,15 C2.4558734,15 2.75715155,14.872185 2.96713329,14.6622033 L9.19354839,8.43578819 Z M14.9817407,4.4643944 C14.9817407,4.28180158 14.872185,4.14485697 14.6895922,4.14485697 C14.5069994,4.14485697 12.3889227,5.47778454 12.0876446,5.65124772 L10.3256239,4.67437614 L10.3256239,2.62933658 L13.0006086,1.08642727 C13.0827754,1.03164942 13.1466829,0.931223372 13.1466829,0.830797322 C13.1466829,0.721241631 13.0919051,0.639074863 13.0006086,0.575167377 C12.4437005,0.2008521 11.5763847,0 10.9099209,0 C8.65489957,0 6.81984175,1.83505782 6.81984175,4.09007912 C6.81984175,6.34510043 8.65489957,8.18015825 10.9099209,8.18015825 C12.635423,8.18015825 14.1965916,7.05721242 14.771759,5.43213634 C14.872185,5.13998783 14.9817407,4.76567255 14.9817407,4.4643944 L14.9817407,4.4643944 Z" id="fa-wrench"></path>
            </g>
        </g>
    </g>
</svg>