<?xml version="1.0" encoding="utf-8"?>
<!-- Generator: Adobe Illustrator 20.0.0, SVG Export Plug-In . SVG Version: 6.00 Build 0)  -->
<svg version="1.1" id="Layer_1" xmlns="http://www.w3.org/2000/svg" xmlns:xlink="http://www.w3.org/1999/xlink" x="0px" y="0px"
	 viewBox="0 0 35 35" style="enable-background:new 0 0 35 35;" xml:space="preserve">
<style type="text/css">
	.st0{fill:#FFFFFF;}
</style>
<g>
	<g>
		<path class="st0" d="M17.5,35C7.9,35,0,27.1,0,17.5S7.9,0,17.5,0S35,7.9,35,17.5S27.1,35,17.5,35z M17.5,0.6
			C8.2,0.6,0.6,8.2,0.6,17.5s7.6,16.9,16.9,16.9s16.9-7.6,16.9-16.9S26.8,0.6,17.5,0.6z"/>
	</g>
	<path class="st0" d="M27.2,27L27.2,27L27.2,27H26v-3.4c0-2.9-2.4-5.3-5.3-5.3h-0.6l0.1-0.1c0.1-0.1,0.2-0.2,0.4-0.4l0,0H21
		c1,0,1.7-0.8,1.7-1.7v-0.7l0,0c0.4-0.3,0.7-0.8,0.7-1.3s-0.3-1-0.7-1.3l0,0l0,0c0-2.9-2.4-5.2-5.3-5.2s-5.3,2.4-5.3,5.2l0,0l0,0
		c-0.4,0.3-0.7,0.8-0.7,1.3c0,0.9,0.7,1.6,1.6,1.6h0.3v0.1c0.2,1,0.7,1.8,1.4,2.5l0.1,0.1h-0.6c-2.9,0-5.3,2.4-5.3,5.3V27H7.8l0,0
		c-0.2,0-0.3,0.1-0.3,0.3c0,0.2,0.1,0.3,0.3,0.3l0,0h19.5l0,0l0,0c0.2,0,0.3-0.1,0.3-0.3S27.4,27,27.2,27z M20.3,18.8l-1.5,3H18
		l1.5-3H20.3z M17.5,21.4L16.3,19h0.1c0.4,0.1,0.7,0.1,1.1,0.1s0.7,0,1.1-0.1h0.1L17.5,21.4z M22.2,16c0,0.6-0.4,1.1-1,1.1h-0.1
		l0.1-0.1c0.2-0.4,0.4-0.9,0.5-1.4v-0.1H22h0.1h0.1V16z M23,14c0,0.5-0.4,1-1,1h-0.2v-1.9H22C22.5,13.1,23,13.5,23,14z M13.2,15H13
		c-0.5,0-1-0.4-1-1s0.4-1,1-1h0.2V15z M13.3,12.5H13h-0.1h-0.1v-0.1C13,10,15,8,17.5,8s4.5,2,4.7,4.4v0.1h-0.1H22h-0.3v-0.1
		c-0.3-2.1-2.1-3.5-4.2-3.5S13.7,10.4,13.3,12.5L13.3,12.5z M21.2,13.2L21.2,13.2c-2.8-0.1-4.4-1.2-4.4-2.2c0-0.2-0.1-0.3-0.3-0.3
		s-0.3,0.1-0.3,0.3c0,0.9-0.9,1.7-2.2,1.8h-0.1v-0.1c0.2-1.9,1.8-3.3,3.6-3.3C19.5,9.5,21.2,11.1,21.2,13.2L21.2,13.2z M13.8,14.9
		v-1.5h0.1c1.1-0.1,2-0.6,2.5-1.4v-0.1l0.1,0.1c0.8,1,2.5,1.7,4.6,1.7h0.1v1.1c0,0.8-0.3,1.6-0.7,2.2l0,0h-2.8l0,0l0,0
		c-0.2,0-0.3,0.1-0.3,0.3s0.1,0.3,0.3,0.3l0,0H20l-0.2,0.1c-0.2,0.2-0.4,0.3-0.7,0.4c-0.5,0.2-1,0.3-1.5,0.3s-1-0.1-1.5-0.3
		C14.7,17.7,13.8,16.3,13.8,14.9z M15.5,18.8l1.5,3h-0.8l-1.5-3H15.5z M11.4,23.5V27H9.5v-3.4c0-2.5,2-4.6,4.5-4.7l0,0l1.5,3H13
		C12.2,21.8,11.4,22.6,11.4,23.5z M18.7,27h-2.5c-0.1-0.1-0.1-0.3-0.1-0.4c0-0.7,0.6-1.3,1.3-1.3c0.7,0,1.3,0.6,1.3,1.3
		C18.8,26.7,18.8,26.8,18.7,27z M23,27h-3.7c0-0.1,0.1-0.3,0.1-0.4c0-1.1-0.9-1.9-1.9-1.9c-1.1,0-1.9,0.9-1.9,1.9
		c0,0.2,0,0.3,0.1,0.4H12v-3.4c0-0.6,0.5-1.1,1.1-1.1h8.8c0.6,0,1.1,0.5,1.1,1.1C23,23.6,23,27,23,27z M25.5,27h-1.8v-3.4
		c0-1-0.8-1.7-1.7-1.7h-2.5l1.5-3l0,0c2.5,0.1,4.5,2.2,4.5,4.7V27z"/>
</g>
</svg>
