<?xml version="1.0" encoding="utf-8"?>
<!-- Generator: Adobe Illustrator 20.0.0, SVG Export Plug-In . SVG Version: 6.00 Build 0)  -->
<svg version="1.1" id="Layer_1" xmlns="http://www.w3.org/2000/svg" xmlns:xlink="http://www.w3.org/1999/xlink" x="0px" y="0px"
	 viewBox="0 0 35 35" style="enable-background:new 0 0 35 35;" xml:space="preserve">
<style type="text/css">
	.st0{fill:#FFFFFF;}
</style>
<g>
	<g>
		<path class="st0" d="M17.5,35C7.9,35,0,27.1,0,17.5S7.9,0,17.5,0S35,7.9,35,17.5S27.1,35,17.5,35z M17.5,0.6
			C8.2,0.6,0.6,8.2,0.6,17.5s7.6,16.9,16.9,16.9s16.9-7.6,16.9-16.9S26.8,0.6,17.5,0.6z"/>
	</g>
	<g>
		<path class="st0" d="M19.8,12.7l-1.4-0.2l-0.6-1.3c-0.1-0.2-0.4-0.2-0.5,0l-0.6,1.3l-1.4,0.2c-0.1,0-0.2,0.1-0.2,0.2
			c0,0.1,0,0.2,0.1,0.3l1,1L16,15.6c0,0.1,0,0.2,0.1,0.3c0.1,0.1,0.2,0.1,0.3,0l1.2-0.7l1.2,0.7h0.1c0.1,0,0.1,0,0.2-0.1
			s0.1-0.2,0.1-0.3L19,14.1l1-1c0.1-0.1,0.1-0.2,0.1-0.3S19.9,12.7,19.8,12.7z M18.4,13.9c-0.1,0.1-0.1,0.2-0.1,0.3l0.2,0.9
			l-0.8-0.4h-0.1h-0.1l-0.8,0.4l0.2-0.9c0-0.1,0-0.2-0.1-0.3l-0.7-0.7l0.9-0.1c0.1,0,0.2-0.1,0.2-0.2l0.4-0.8l0.4,0.8
			c0,0.1,0.1,0.2,0.2,0.2l0.9,0.1L18.4,13.9z"/>
		<path class="st0" d="M26.5,11c-0.6-0.9-1.6-1.5-2.9-1.6V8.6c0-0.2-0.1-0.3-0.3-0.3H11.7c-0.2,0-0.3,0.1-0.3,0.3v0.9
			c-1.3,0.1-2.3,0.6-2.9,1.6c-0.7,1.1-0.7,2.5-0.1,3.9c0.5,1.1,1.5,2,2.9,2.7c1.1,0.5,2,0.7,2.1,0.8h0.2c0.5,0.7,1.1,1.2,1.7,1.5
			c0.6,0.4,1,1,1,1.7v0.8h-1.7c-0.8,0-1.4,0.6-1.4,1.4v0.3l0,0h-0.8c-0.2,0-0.3,0.1-0.3,0.3V27H9.7c-0.2,0-0.3,0.1-0.3,0.3
			c0,0.2,0.1,0.3,0.3,0.3h15.5c0.2,0,0.3-0.1,0.3-0.3c0-0.2-0.1-0.3-0.3-0.3h-2.5v-2.4c0-0.2-0.1-0.3-0.3-0.3h-0.8l0,0V24
			c0-0.8-0.6-1.4-1.4-1.4h-1.7l0,0v-0.8c0-0.7,0.4-1.4,1-1.7c0.6-0.4,1.2-0.9,1.7-1.5l0.2-0.1c0.1,0,1-0.2,2.1-0.8
			c1.4-0.7,2.4-1.6,2.9-2.7C27.2,13.6,27.2,12.1,26.5,11z M23.6,11.3c0.6,0.1,1.1,0.3,1.4,0.7c0.4,0.6,0.3,1.4,0,2.2
			c-0.4,0.9-1.4,1.5-2.2,1.8c0,0-0.1,0-0.1,0.1h-0.1C23.2,14.7,23.5,13,23.6,11.3z M12.2,15.4c0.1,0.3,0.2,0.5,0.3,0.7
			c-0.1,0-0.1-0.1-0.2-0.1c-0.8-0.4-1.7-1-2.2-1.8c-0.4-0.8-0.4-1.7,0-2.2c0.3-0.4,0.8-0.7,1.4-0.7C11.5,12.7,11.7,14.2,12.2,15.4z
			 M11.6,17.1c-0.9-0.4-2.1-1.2-2.6-2.4c-0.6-1.2-0.6-2.4,0-3.3c0.5-0.8,1.3-1.2,2.4-1.3v0.6c-0.9,0.1-1.5,0.4-1.9,1
			c-0.5,0.7-0.5,1.8,0,2.8s1.6,1.7,2.4,2.1c0.3,0.1,0.5,0.2,0.8,0.3c0.1,0.2,0.2,0.4,0.4,0.6c0,0,0,0.1,0.1,0.1
			C12.8,17.6,12.3,17.4,11.6,17.1z M21.4,24.9h0.8V27h-7.9l0,0h-1.5v-2.1H21.4z M20.3,23.1c0.5,0,0.8,0.4,0.8,0.8v0.3h-5h-2.2l0,0
			V24c0-0.5,0.4-0.8,0.8-0.8h5.6V23.1z M19.3,19.5C18.5,20,18,20.8,18,21.7v0.8l0,0h-1l0,0v-0.8c0-0.9-0.5-1.8-1.3-2.2
			c-2.2-1.3-3.7-4.8-3.7-8.7V8.9h9.7h1.2l0,0v1.8C23,14.7,21.5,18.2,19.3,19.5z M26,14.7c-0.5,1.2-1.7,1.9-2.6,2.4
			c-0.5,0.2-1,0.4-1.3,0.5c-0.1,0-0.2,0-0.2,0.1c0.1-0.2,0.3-0.5,0.4-0.7c0.3-0.1,0.6-0.2,0.8-0.3c0.8-0.4,2-1.1,2.4-2.1
			c0.5-1,0.5-2.1,0-2.8c-0.4-0.6-1.1-1-1.9-1v-0.6c1.1,0.1,1.9,0.5,2.4,1.3C26.5,12.3,26.5,13.5,26,14.7z"/>
		<path class="st0" d="M17.5,9.7c-2.2,0-4.1,1.8-4.1,4.1c0,2.2,1.8,4.1,4.1,4.1c2.2,0,4.1-1.8,4.1-4.1S19.7,9.7,17.5,9.7z
			 M17.5,17.2c-1.9,0-3.5-1.5-3.5-3.5c0-1.9,1.5-3.5,3.5-3.5c1.9,0,3.5,1.5,3.5,3.5C21,15.6,19.4,17.2,17.5,17.2z"/>
	</g>
</g>
</svg>
