<?xml version="1.0" encoding="utf-8"?>
<!-- Generator: Adobe Illustrator 20.0.0, SVG Export Plug-In . SVG Version: 6.00 Build 0)  -->
<svg version="1.1" id="Layer_1" xmlns="http://www.w3.org/2000/svg" xmlns:xlink="http://www.w3.org/1999/xlink" x="0px" y="0px"
	 viewBox="0 0 35 35" style="enable-background:new 0 0 35 35;" xml:space="preserve">
<style type="text/css">
	.st0{fill:#FFFFFF;}
</style>
<g>
	<g>
		<path class="st0" d="M17.5,35C7.9,35,0,27.1,0,17.5S7.9,0,17.5,0S35,7.9,35,17.5S27.1,35,17.5,35z M17.5,0.6
			C8.2,0.6,0.6,8.2,0.6,17.5s7.6,16.9,16.9,16.9s16.9-7.6,16.9-16.9S26.8,0.6,17.5,0.6z"/>
	</g>
	<g>
		<path class="st0" d="M15.9,20.5c0.7,0,1.2-0.6,1.2-1.2c0-0.7-0.6-1.2-1.2-1.2c-0.7,0-1.2,0.6-1.2,1.2
			C14.7,19.9,15.2,20.5,15.9,20.5z M15.9,18.6c0.3,0,0.6,0.3,0.6,0.6c0,0.3-0.3,0.6-0.6,0.6c-0.3,0-0.6-0.3-0.6-0.6
			C15.3,18.9,15.6,18.6,15.9,18.6z"/>
		<path class="st0" d="M17.8,22.1c0,0.7,0.6,1.2,1.2,1.2c0.7,0,1.2-0.6,1.2-1.2c0-0.7-0.6-1.2-1.2-1.2
			C18.4,20.8,17.8,21.4,17.8,22.1z M19.7,22.1c0,0.3-0.3,0.6-0.6,0.6c-0.3,0-0.6-0.3-0.6-0.6c0-0.3,0.3-0.6,0.6-0.6
			C19.4,21.4,19.7,21.7,19.7,22.1z"/>
		<path class="st0" d="M15.2,22.9c0.1,0.1,0.1,0.1,0.2,0.1s0.2,0,0.2-0.1l4.2-4.2c0.1-0.1,0.1-0.3,0-0.4s-0.3-0.1-0.4,0l-4.2,4.2
			C15.1,22.6,15.1,22.8,15.2,22.9z"/>
		<path class="st0" d="M13.1,26.1H22c0.5,0,0.9-0.4,0.9-0.9v-9.1c0-0.5-0.4-0.9-0.9-0.9h-8.9c-0.5,0-0.9,0.4-0.9,0.9v9.1
			C12.2,25.7,12.6,26.1,13.1,26.1z M12.8,16.1c0-0.2,0.1-0.3,0.3-0.3H22c0.2,0,0.3,0.1,0.3,0.3v9.1c0,0.2-0.1,0.3-0.3,0.3h-8.9
			c-0.2,0-0.3-0.1-0.3-0.3V16.1z"/>
		<path class="st0" d="M26.2,26.9h-1.9V14.3h0.9c0.2,0,0.3-0.1,0.3-0.3v-2.9c0-0.2-0.1-0.3-0.3-0.3h-5.6c0.9-0.2,1.5-0.5,1.7-0.7
			C21.7,9.8,21.9,9.4,22,9c0-0.5-0.1-1-0.4-1.3C21.3,7.3,20.8,7,20.2,7c-0.4,0-0.8,0.1-1.1,0.4c-0.5,0.4-1.2,1.9-1.6,2.8
			c-0.4-0.9-1.1-2.4-1.6-2.8C15.6,7.2,15.2,7,14.8,7c-0.5,0-1,0.2-1.4,0.7c-0.6,0.8-0.5,1.9,0.3,2.5c0.3,0.2,0.8,0.4,1.7,0.7H9.8
			c-0.2,0-0.3,0.1-0.3,0.3V14c0,0.2,0.1,0.3,0.3,0.3h0.9v12.6H8.8c-0.2,0-0.3,0.1-0.3,0.3s0.1,0.3,0.3,0.3h17.5
			c0.2,0,0.3-0.1,0.3-0.3S26.4,26.9,26.2,26.9z M19.5,7.9c0.2-0.2,0.5-0.3,0.7-0.3c0.4,0,0.7,0.2,0.9,0.4c0.4,0.5,0.3,1.2-0.2,1.6
			c-0.3,0.3-1.8,0.6-2.9,0.9C18.5,9.5,19.2,8.1,19.5,7.9z M14.1,9.7c-0.5-0.4-0.6-1.1-0.2-1.6c0.2-0.3,0.5-0.4,0.9-0.4
			c0.3,0,0.5,0.1,0.7,0.3c0.3,0.3,1,1.6,1.5,2.7C15.8,10.3,14.4,9.9,14.1,9.7z M10.1,13.7v-2.3h7.1v2.3H10.1z M23.7,26.9H11.3V14.3
			h12.5L23.7,26.9L23.7,26.9z M17.8,13.7v-2.3h7.1v2.3h-1.1H17.8z"/>
	</g>
</g>
</svg>
