<?xml version="1.0" encoding="utf-8"?>
<!-- Generator: Adobe Illustrator 20.0.0, SVG Export Plug-In . SVG Version: 6.00 Build 0)  -->
<svg version="1.1" id="Слой_1" xmlns="http://www.w3.org/2000/svg" xmlns:xlink="http://www.w3.org/1999/xlink" x="0px" y="0px"
	 viewBox="0 0 176 47.3" style="enable-background:new 0 0 176 47.3;" xml:space="preserve">
<style type="text/css">
	.st0{fill:#FFFFFF;}
</style>
<title>Ресурс 6</title>
<title>Ресурс 6</title>
<g>
	<circle class="st0" cx="159.9" cy="33.6" r="3.6"/>
	<path class="st0" d="M106.8,16c-0.5,0.1-1,0.3-1.4,0.7c-0.4,0.3-0.8,0.7-1.1,1.1c-1.3,2.2-2.3,4.5-3,7c-0.2,0.2-0.3,0.4-0.5,0.6
		c-0.6,0.7-1.3,1.6-2.1,2.5s-1.5,1.7-2.3,2.6c-1.1,1.2-2.6,2-4.3,2.2c-0.9,0.1-1.9-0.2-2.6-0.7c-1.3-1-2.2-2.5-2.4-4.1
		c-0.1-2.3,0.4-4.6,1.2-6.8c0.3-0.9,0.7-1.7,1.2-2.5c0.7-1.4,2.1-2.3,3.7-2.2c0.6,0,1.2,0.3,1.7,0.8c0.4,0.5,1.1,0.8,1.8,0.8
		c0.5,0,1-0.4,1.5-1.2c0.5-1,0.8-2.1,0.7-3.2c0-2.3-1.3-3.4-3.9-3.4c-1.7,0-3.3,0.5-4.7,1.4c-1.7,1-3.1,2.4-4.3,4
		c-1.4,1.8-2.4,3.8-3.2,6c-0.8,2.5-1.2,5.1-1.2,7.7c0,0.4,0,0.7,0,1.1c-0.5,0.2-1,0.3-1.5,0.3H80c0.5-1.2,0.8-2.4,0.8-3.7
		c0-1-0.3-2.1-0.9-2.9c-0.7-0.8-1.8-1.2-2.9-1.1c-1.3-0.1-2.5,0.5-3.4,1.5c-0.8,0.8-1.3,2-1.3,3.2c-0.1,2,0.9,3.9,2.6,5
		C74,33.2,73,33.5,72,33.4c-1,0.1-2-0.3-2.7-1.1c-0.6-0.8-1-1.7-1-2.7c0-2,0.9-3.8,2.3-5.1c1.3-1.4,3.1-2.1,5-2.1c2,0.1,3-0.1,3-0.6
		s-0.7-1-2.1-1.6c-1.1-0.4-2.2-0.6-3.4-0.5c-2.7-0.1-5.4,1.1-7.2,3.1c-1.8,2-2.8,4.7-2.7,7.4c0,0.7,0,1.3,0.2,1.9l-0.1,0.1
		c-0.4,0.4-0.8,0.6-1.3,0.7c-0.3,0-0.3-0.1-0.3-0.4c0-0.4,0.1-0.8,0.2-1.3l0.5-1.9c0.2-0.7,0.3-1.4,0.5-2.2c0.1-0.9,0.2-1.8,0.2-2.7
		c0-0.9-0.4-1.8-1-2.5c-0.8-0.7-1.9-1.1-3-1c-2.1,0-4.1,1-5.4,2.8v-0.4c0-1-0.5-1.9-1.2-2.6c-0.8-0.7-1.8-1-2.8-1
		c-1.6,0-3.1,0.8-4.1,2.2c-0.1-0.3-0.3-0.6-0.4-1c-0.7-1.3-1.4-2-2.2-2c-0.6,0.1-1.2,0.5-1.4,1c-1.2,1.9-2.1,4.1-2.4,6.4
		c-0.2,1.7-0.4,3.5-0.4,5.2c-1,0.8-1.6,1.3-1.9,1.3c-0.5,0-0.7-1-0.7-3c0-1.6,0.1-3.1,0.3-4.7c0.6-0.9,1.1-1.9,1.5-2.9
		c-0.1-0.8-0.5-1.6-1.2-2.1C36,19.4,35.1,19,34.2,19c-0.4,0-0.8,0.4-1.2,1.1c-0.8-0.4-1.8-0.6-2.7-0.6c-1.1,0-2.1,0.2-3.2,0.5
		c-1.3,0.4-2.4,1.1-3.4,2c-2.8,2.5-4.3,6-4.1,9.7c-0.1,1.4,0.5,2.9,1.5,3.9c1.1,1.1,2.6,1.7,4.1,1.6c1.4,0.1,2.8-0.3,4.1-1
		c1-0.7,1.8-1.5,2.4-2.5c0.5,2.3,1.3,3.4,2.6,3.4c1,0,2-0.2,2.9-0.7c0.5-0.2,1-0.5,1.4-0.8c0.1,0.3,0.1,0.7,0.2,1
		c0.1,0.6,0.7,1,1.3,1c0.3,0,0.6-0.1,0.8-0.2C43,36.6,44,35.8,44,35c-0.1-0.6-0.2-1.2-0.4-1.8c-0.3-0.9-0.4-1.9-0.4-2.9
		c0.2-1.5,0.7-2.9,1.5-4.2c1-1.7,1.9-2.6,2.6-2.6c0.7,0,1.1,0.4,1.1,1.2c0.1,0.4,0.1,0.9,0,1.5s-0.2,1.3-0.2,2.1
		C48.1,29.1,48,30,48,30.9c0,1,0,2,0,3c0,0.9,0.1,1.7,0.3,2.5c0.1,0.6,0.7,1,1.3,1c0.3,0,0.6-0.1,0.8-0.2c2.1-0.8,3.1-1.6,3.1-2.4
		c-0.1-0.6-0.2-1.2-0.4-1.8c-0.2-0.8-0.4-1.7-0.4-2.5c0.3-1.4,0.9-2.7,1.7-3.9c0.5-1.2,1.2-1.8,2.1-1.8c0.9,0,1.4,0.4,1.4,1.2
		c-0.1,1-0.3,2-0.6,2.9c-0.2,1.1-0.4,2.3-0.4,3.4c0,3.2,0.9,4.8,2.6,4.8c1.9-0.1,3.7-0.8,5.1-2.1c0.1,0.1,0.2,0.2,0.3,0.3
		c1.6,1.5,3.8,2.2,6,2c2.7,0,5.2-1.3,6.8-3.4c0.9,0.2,1.8,0.3,2.7,0.3c0.7,0,1.3-0.2,1.9-0.5c0.4,0.8,1,1.5,1.6,2.2
		c1.6,1.5,3.7,2.3,5.9,2.2c2,0,4.1-0.4,5.9-1.3c1.3-0.6,2.4-1.5,3.4-2.5c0,0.2,0,0.3,0,0.5c0,2.3,0.5,3.4,1.5,3.4
		c0.5,0,1-0.1,1.4-0.3l1.3-0.6c1-0.5,1.6-1.6,1.5-2.7v-5.3c0.3-1.9,0.7-3.9,1.3-5.7c0.4-1.3,0.6-2.6,0.8-3.9c0.1-0.8,0.1-1.5,0-2.3
		C107.3,16.4,107.2,16,106.8,16z M31.6,29c-0.2,0.7-0.4,1.4-0.8,2c-0.7,1.4-2.1,2.3-3.7,2.3c-1.4,0-2.1-0.9-2.1-2.8l0,0
		c0-2.1,0.8-4,2.2-5.5c1.4-1.4,3.1-2.4,5.1-2.8C31.8,24.4,31.6,26.7,31.6,29z M77.6,29.6c-0.6-0.6-0.9-1.5-0.9-2.4
		c0-0.3,0.1-0.6,0.2-0.9c-0.2-0.3,0-0.5,0.5-0.5s0.8,0.4,0.8,1.2C78.2,27.9,78,28.8,77.6,29.6z"/>
	<path class="st0" d="M153.7,29c-0.3,0-0.7,0.1-1.1,0.4c-2.4,2.5-4,3.8-4.6,3.8s-1-0.5-1-1.4c0-0.7,0.1-1.4,0.3-2.1
		c0.2-0.9,0.6-2.5,1.1-4.6c0.5-1.8,0.7-3.7,0.7-5.6c0-3.7-1.5-5.5-4.6-5.5c-2.3,0.1-4.4,1.4-5.6,3.4V17c0-0.9,0-1.8-0.2-2.6
		c0-0.1,0-0.2,0-0.2c-0.3-2.5-2.6-4.3-5.1-4c-3.1,0.2-5.7,2.2-6.8,5c-0.1-0.7-0.2-1.3-0.2-1.9v-0.1c-0.3-1.9-2-3.2-3.8-2.9
		c-1.5-0.1-3.1,0.4-4.3,1.3c-0.6,0.3-1,0.8-1.3,1.4c-0.4-0.4-0.8-0.7-1.3-0.9c-2.2-1.1-4.6-1.7-7-1.6c-2.7,0-5.4,0.8-7.6,2.4
		c-0.8,0.5-1.5,1.1-2,1.9c-0.3,0.4-0.6,0.9-0.7,1.4c0,0.3,0.2,0.4,0.6,0.4c0.5,0,1-0.2,1.4-0.4l1.7-0.9c0.7-0.4,1.5-0.7,2.3-0.9
		c1.3-0.3,2.5-0.4,3.8-0.4c1.4-0.1,2.7,0.3,3.8,1.2c1,0.7,1.6,1.8,1.6,3c0,1.1-0.2,2.1-0.6,3.1c-0.4,0.8-1,1.4-1.6,2
		c-0.5-0.3-1.1-0.5-1.7-0.5s-1.2,0.1-1.7,0.4c-0.5,0.2-0.8,0.7-0.7,1.2c0,0.5,0.3,1,0.7,1.4c0.5,0.4,1,0.6,1.6,0.7
		c0.4,1.6,0.6,3.2,0.8,4.8c0.1,1.6,0.4,3.2,1,4.7c0.3,0.6,0.7,1,1.2,1.4c0.6,0.4,1.4,0.6,2.1,0.5c1,0,1.9-0.3,2.8-0.7
		c0.8-0.4,1.6-0.9,2.3-1.5c0.2,1.6,0.7,2.5,1.8,2.5c0.5,0,0.9-0.1,1.4-0.3l1.3-0.6c1-0.5,1.6-1.7,1.5-2.8c-0.1-1.5-0.3-2.9-0.7-4.3
		v-0.7c0.1-0.7,0.3-1.6,0.6-2.6c0.6-3.1,1.8-6,3.4-8.7c1.3-1.9,2.6-2.8,3.9-2.8c0.6-0.1,1.2,0.3,1.5,0.9c0.3,0.8,0.4,1.6,0.4,2.4
		c-0.3,3.1-0.9,6.2-1.9,9.2c-0.4,1.5-0.8,3-1.2,4.4c-0.3,1.1-0.5,2.2-0.5,3.4c0,0.7,0.1,1.4,0.4,2c0.2,0.5,0.7,0.8,1.2,0.8
		c0.9,0,1.8-0.3,2.5-1c0.7-0.5,1.1-1.3,1.2-2.1c0-0.4,0-0.7,0-1.1v-1c0.2-3.2,1.1-6.3,2.6-9c0.6-1.2,1.4-2.4,2.3-3.4
		c0.6-0.7,1.4-1.2,2.3-1.3c0.3,0,0.7,0.1,0.8,0.4c0.2,0.4,0.2,0.9,0.2,1.3c-0.2,2.3-0.7,4.6-1.4,6.8c-0.3,1.2-0.7,2.3-1,3.4
		c-0.3,1-0.4,2-0.4,3c0,0.9,0.3,1.7,0.9,2.4c0.7,0.7,1.6,1.1,2.6,1.1c1.1,0,2.1-0.2,3.1-0.7s1.9-1.1,2.7-1.8s1.4-1.5,2-2.3
		c0.4-0.6,0.7-1.4,0.7-2.2C154.3,29.5,154.1,29,153.7,29z M118.4,32.7c-0.4,0.4-0.9,0.6-1.5,0.7c-0.5,0-0.9-0.3-1-0.7
		c-0.3-0.6-0.6-1.2-0.7-1.9c-0.2-0.8-0.5-1.6-0.7-2.5s-0.5-1.8-0.9-2.6c1.6-0.6,3-1.6,4.1-3c1.1-1.5,1.7-3.3,1.6-5.2
		c0-0.8-0.1-1.6-0.4-2.4l0.4-0.3l1-0.6c0.3-0.2,0.6-0.3,0.9-0.3c1,0,1.5,1,1.5,2.9c0,0.3-0.2,1.6-0.7,4c-0.7,3.2-1.2,6.5-1.6,9.8
		L120,31C119.5,31.8,118.9,32.3,118.4,32.7z"/>
</g>
</svg>
