<?xml version="1.0" encoding="utf-8"?>
<!-- Generator: Adobe Illustrator 20.0.0, SVG Export Plug-In . SVG Version: 6.00 Build 0)  -->
<svg version="1.1" id="Слой_1" xmlns="http://www.w3.org/2000/svg" xmlns:xlink="http://www.w3.org/1999/xlink" x="0px" y="0px"
	 viewBox="0 0 817 124" style="enable-background:new 0 0 817 124;" xml:space="preserve">
<style type="text/css">
	.st0{fill:#FFFFFF;}
	.st1{clip-path:url(#SVGID_3_);}
</style>
<g>
	<g>
		<path class="st0" d="M210.6,31.4c-2.4,2.4-4.5,4.5-6.8,6.8c-0.4-0.3-1-0.8-1.5-1.2c-10.9-8.5-26.3-7.5-35.8,2.6
			c-4.5,4.7-6.8,10.4-7.3,16.9c-1,13.6,7.8,24.7,18.7,27.8c9,2.5,17.4,1.4,24.9-4.6c4.2-3.3,6.2-7.8,7.1-12.9
			c0.3-1.4-0.2-1.8-1.6-1.8c-6.8,0.1-13.5,0-20.3,0.1c-1.7,0-2.3-0.5-2.1-2.2c0.1-2,0.1-4,0-6c0-1,0.2-1.5,1.4-1.5
			c10.4,0,20.8,0,31.2,0.1c0.5,0,1.3,0.6,1.3,1c1.1,9.3-0.2,18.1-5.9,25.7C208,89.8,200.1,94,190.4,95c-11.2,1.1-21.2-1.8-29.6-9.4
			c-8.3-7.4-12.4-16.7-12.3-27.9c0.1-17.8,14.1-32.9,31.2-35.6c10.8-1.7,20.5,0.6,29,7.5C209.4,30.2,210,30.8,210.6,31.4z"/>
		<path class="st0" d="M363.9,53.2c0.2-0.4,0.3-0.6,0.3-0.7c0.4-3.2,0.4-3.2,3.6-3.2c1.5,0,3.1,0,4.6,0c1,0,1.5,0.3,1.5,1.4
			c0,14,0.1,28-0.1,41.9c0,4.6-0.8,9.2-3.1,13.4c-3.5,6.4-9.1,9.6-16.2,10.3c-6.9,0.8-13-0.8-18.3-5.5c-2.5-2.2-4.4-4.8-5.8-8.1
			c2.7-1.1,5.3-2.3,7.9-3.2c0.4-0.1,1.3,0.6,1.6,1.1c2,3.3,4.7,5.8,8.5,6.5c7.8,1.5,14.4-2.3,15.4-10.5c0.3-2.2,0.3-4.4,0.5-6.9
			c-0.6,0.2-1,0.2-1.1,0.4c-5.6,5.9-14.5,6.2-21.7,2.7c-9.1-4.5-14.1-14.1-12.9-24.7c1-9.3,8.5-17.6,17.9-19.7
			c6.1-1.4,11.6-0.3,16.3,4.1C363.2,52.8,363.5,53,363.9,53.2z M338.6,72.7c0.2,1,0.5,3.1,1.2,4.9c2,5.3,7.2,8.8,12.5,8.6
			c5.4-0.1,10.1-3.8,11.9-9.4c0.9-2.8,1-5.7,0.5-8.7c-1.6-9.2-11.2-14.1-18.9-9.5C340.8,61.6,338.7,66.1,338.6,72.7z"/>
		<path class="st0" d="M516.8,93.8c-2.8,0-5.3,0.1-7.9-0.1c-0.5,0-1.2-1-1.4-1.7c-1.7-4.7-3.4-9.4-5-14.1c-0.4-1.3-1.1-1.8-2.5-1.8
			c-7.9,0.1-15.9,0.1-23.8,0c-1.3,0-1.9,0.4-2.3,1.6c-1.7,4.8-3.4,9.6-5.1,14.4c-0.4,1.1-0.9,1.7-2.3,1.6c-2.3-0.1-4.5,0-7.1,0
			c1-2.7,1.9-5.1,2.8-7.5c6.9-18.3,13.8-36.6,20.7-54.9c0.5-1.3,1.1-1.9,2.5-1.8c1.8,0.1,3.5,0.1,5.3,0c1.5-0.1,2.3,0.4,2.8,1.9
			c5.6,15,11.3,29.9,16.9,44.9c2,5.2,3.9,10.4,5.9,15.6C516.4,92.5,516.5,93.1,516.8,93.8z M488.4,39.4c-0.2,0-0.4,0-0.6,0
			c-3.5,9.7-7,19.4-10.6,29.4c7.4,0,14.5,0,21.9,0C495.4,58.8,491.9,49.1,488.4,39.4z"/>
		<path class="st0" d="M247.9,95.3c-12.8-0.1-23.8-9.3-23.8-23.7c0-14.5,11.1-23.6,23.7-23.6c12.8,0,23.8,9.2,23.8,23.7
			C271.5,86.1,260.4,95.1,247.9,95.3z M234.3,71.5c0,0.6-0.1,1.2,0,1.8c0.6,5.1,3,9.1,7.7,11.5c4.4,2.2,8.9,1.9,13-0.7
			c7.2-4.6,8.7-15.4,3.1-22.2c-3-3.6-6.9-5.4-11.5-4.8C238.9,58.1,234.3,63.7,234.3,71.5z"/>
		<path class="st0" d="M300.1,95.3c-12.7,0-23.8-9.2-23.8-23.7c0-14.4,10.9-23.6,23.6-23.6c12.8,0,23.8,9.1,23.8,23.6
			C323.7,86,312.7,95.1,300.1,95.3z M286.5,71.6c0,0.5,0,1.1,0,1.6c0.5,5.2,2.9,9.2,7.5,11.6c4.5,2.3,9,2,13.2-0.7
			c7.2-4.7,8.7-15.5,3-22.2c-3-3.5-6.8-5.3-11.4-4.8C291.1,58,286.5,63.7,286.5,71.6z"/>
		<path class="st0" d="M440.4,65.5c-10.7,4.4-21.1,8.7-31.7,13.1c1.5,3.5,4,5.8,7.4,6.9c5.5,1.8,9.6,0.3,16.2-5.8
			c2.5,1.7,5,3.3,7.6,5.1c-3.8,5.3-8.6,8.5-14.7,9.8c-10.7,2.3-21.4-2.9-26-12.7c-4.5-9.5-2.6-23.1,7-29.9
			c10.6-7.5,25.7-5.3,32.4,9.2C439.3,62.6,439.8,64,440.4,65.5z M428.4,62.2c-1.3-4.3-7.2-6.5-12.3-4.9c-6,1.9-10.4,8.6-8.7,13.6
			C414.4,68,421.4,65.1,428.4,62.2z"/>
		<path class="st0" d="M599.1,67.9c1-4.4-1.7-9.2-6.2-11.1c-4.7-2-12.4-1.5-16,5.2c-2.3-1-4.6-2-7.1-3c1.4-3.3,3.5-5.6,6.3-7.4
			c7.3-4.8,18.9-3.9,25.3,1.8c3.5,3.2,5.3,7.3,5.4,12c0.2,8.9,0,17.8,0.1,26.8c0,1.4-0.5,1.7-1.8,1.7c-1.3-0.1-2.7-0.1-4,0
			s-1.8-0.3-1.7-1.7c0.1-1.4,0-2.8-0.4-4.4c-0.4,0.4-0.8,0.8-1.2,1.3c-6,7.2-17.5,8.4-24.9,2.4c-7-5.7-7.2-18.8,3.5-23.8
			c6.8-3.1,13.7-2.9,20.7-0.6C597.8,67.4,598.5,67.6,599.1,67.9z M588.7,72c-2.8-0.2-5.5,0.3-8,1.8c-2.8,1.7-4.6,4.2-4.3,7.5
			c0.3,3.5,2.7,5.3,5.9,6.2c7.4,2.2,16.2-3.5,17.2-11.1c0.1-1.2-0.3-1.9-1.3-2.4C595.1,72.5,592,71.8,588.7,72z"/>
		<path class="st0" d="M530.2,55.9c0.5-0.6,1-1.3,1.6-1.9c4.9-5.2,11-6.5,17.7-4.8c6.5,1.7,9.7,6.4,10.9,12.7
			c0.3,1.6,0.4,3.3,0.4,4.9c0,8.3,0,16.6,0.1,24.8c0,1.6-0.4,2.4-2.1,2.2c-1.3-0.1-2.7-0.1-4,0c-1.4,0.1-1.8-0.4-1.8-1.8
			c0.1-7.7,0-15.4,0-23.1c0-0.9,0-1.8,0-2.6c-0.1-4.9-2.7-8.7-6.7-10c-4.9-1.6-9.9-0.2-12.9,3.6c-2.2,2.8-3.3,5.9-3.3,9.4
			c0,7.5,0,15,0,22.6c0,1.6-0.5,2.1-2,1.9c-1.3-0.1-2.6-0.1-3.9,0c-1.7,0.2-2-0.6-2-2.1c0.1-11.7,0-23.5,0-35.2c0-1.6,0-3.3,0-4.9
			c0-1.1,0.3-1.6,1.5-1.6c1.5,0.1,3.1,0.1,4.6,0c1,0,1.5,0.3,1.5,1.4c-0.1,1.4,0,2.9,0,4.3C529.9,55.8,530.1,55.8,530.2,55.9z"/>
		<path class="st0" d="M772.2,82.9c2.3-1,4.6-1.9,6.7-2.8c1.2,1.6,2.2,3.2,3.5,4.6c3.4,3.5,9.3,4.6,13.7,2.7c2.4-1,4.2-2.7,4.2-5.5
			s-1.7-4.5-4.2-5.3c-3.3-1.1-6.8-1.7-10.1-2.8c-2.6-0.9-5.4-1.8-7.6-3.4c-6.4-4.4-6.5-12.8-0.4-17.7c4.9-3.9,10.7-4.7,16.7-3.8
			c5.1,0.7,9.3,3.1,12,7.7c0.2,0.3,0.4,0.7,0.6,1.1c0.1,0.2,0.2,0.4,0.3,0.9c-2.2,0.9-4.4,1.8-6.7,2.8c-1.9-3.5-4.8-5.2-8.6-5.7
			c-2.6-0.3-5.2,0.1-7.5,1.3c-2,1-3.2,2.5-3,4.9c0.2,2.2,1.6,3.5,3.4,4.1c3.6,1.1,7.4,1.8,11,2.9c2.4,0.8,5,1.6,7.1,3
			c7.2,4.9,7,15-0.3,20.1c-8.6,6-24.3,4.8-30.4-8C772.4,83.6,772.3,83.3,772.2,82.9z"/>
		<path class="st0" d="M629.3,50c2.8,0,5.3-0.1,7.8,0.1c0.5,0,1.1,0.9,1.4,1.5c3.8,9,7.5,18,11.2,27c0.4,1,0.8,1.9,1.5,3.3
			c0.5-1,0.8-1.5,1-2.1c3.7-9.2,7.5-18.5,11.1-27.7c0.6-1.6,1.4-2.1,3.1-2c2,0.1,4,0,6.2,0c-0.3,0.7-0.4,1.3-0.6,1.8
			c-8.7,19.9-17.3,39.8-25.9,59.7c-0.6,1.3-1.3,1.9-2.7,1.8c-1.9-0.1-3.9,0-6.1,0c0.3-0.8,0.5-1.3,0.8-1.9
			c2.8-6.2,5.7-12.4,8.6-18.5c0.6-1.2,0.5-2.2,0-3.5c-5.5-12.4-10.9-24.8-16.4-37.2C629.9,51.6,629.7,51,629.3,50z"/>
		<path class="st0" d="M767.4,61c-2.4,1-4.7,2-7,2.9c-0.3-0.4-0.5-0.7-0.7-1.1c-4.8-8.5-15.4-9.6-21.9-2.3c-6.8,7.6-4.9,21,3.7,25.8
			c6.4,3.6,14.4,1.6,18.3-4.8c0.9-1.5,1.6-1.6,3-0.9c1.5,0.8,3.2,1.4,5,2.2c-1.9,4.4-4.8,7.7-8.8,9.9c-12.2,6.5-29.5,0.9-32.5-15.5
			c-1.7-9.1,0.2-17.3,7.6-23.6c8.8-7.6,26.3-7.4,32.9,6C767,59.9,767.1,60.3,767.4,61z"/>
		<path class="st0" d="M391.5,59.3c0,10.9,0,21.7,0,32.6c0,1.5-0.4,2.1-2,2c-2-0.1-4.1-0.1-6.2,0c-1.6,0.1-2-0.5-2-2
			c0.1-4.2,0-8.5,0-12.7c0-17.5,0-35,0-52.5c0-2.4,0-2.4,2.4-2.4c1.8,0,3.6,0.1,5.5,0c1.7-0.1,2.2,0.4,2.2,2.1
			C391.5,37.3,391.5,48.3,391.5,59.3z"/>
		<path class="st0" d="M701.4,86.8c0.9,2.2,1.7,4.3,2.6,6.5c-2.5,1.2-5,1.4-7.5,1.2c-5.1-0.4-9.5-2-11.6-7.1
			c-0.7-1.8-1.2-3.8-1.2-5.8c-0.1-7.2-0.1-14.4-0.1-21.7c0-2.8,0-2.8-2.9-2.8c-1.2,0-2.4,0-3.5,0c-1,0-1.4-0.4-1.3-1.3
			c0-1.5-0.1-3.1,0.1-4.6c0-0.4,0.8-1.1,1.2-1.2c1.6-0.1,3.2-0.1,4.7,0c1.3,0.1,1.8-0.5,1.7-1.7c-0.1-3.5,0-6.9,0-10.4
			c0-1.2,0.4-1.7,1.6-1.6c1.6,0.1,3.2,0.1,4.8,0c1.2-0.1,1.5,0.4,1.5,1.5c0,3.5,0,6.9,0,10.4c0,1.4,0.5,1.9,1.9,1.8
			c2.5-0.1,5.1,0,7.6,0c1.2,0,1.6,0.4,1.5,1.5c-0.1,1.4-0.1,2.8,0,4.2c0,1.1-0.4,1.4-1.5,1.4c-2.6,0-5.2,0-7.8,0
			c-1.2,0-1.7,0.3-1.7,1.6c0,7.3-0.1,14.7,0.1,22c0.1,5,3.2,7.3,8.1,6.4C700.1,87,700.7,86.9,701.4,86.8z"/>
		<path class="st0" d="M616.3,61.5c0-10,0-20,0-29.9c0-1.7,0.5-2.2,2.1-2c1.2,0.1,2.5,0.1,3.7,0c1.8-0.2,2.1,0.6,2.1,2.2
			c-0.1,20-0.1,39.9,0,59.9c0,1.8-0.5,2.4-2.3,2.2c-1.1-0.1-2.2,0-3.3,0c-2.3,0-2.3,0-2.3-2.3C616.3,81.5,616.3,71.5,616.3,61.5z"/>
		<path class="st0" d="M710.5,71.9c0-6.7,0-13.4,0-20.1c0-1.4,0.3-1.9,1.8-1.8c1.5,0.1,2.9,0.1,4.4,0c1.7-0.1,1.8,0.7,1.8,2
			c0,12.5,0,25,0,37.5c0,4.3,0,4.3-4.2,4.3c-3.7,0-3.7,0-3.7-3.8C710.5,84,710.5,78,710.5,71.9z"/>
	</g>
	<path class="st0" d="M720.1,34.5c0,3.2-2.4,5.8-5.6,5.8c-3,0-5.8-2.8-5.8-5.8c0.1-3.1,2.6-5.6,5.7-5.6
		C717.7,28.9,720,31.2,720.1,34.5z"/>
	<g>
		<g>
			<path id="SVGID_1_" class="st0" d="M105.8,7.1H86.3c-4.8,0-8.7,3.9-8.7,8.7v25.4H49.2c-4.7,0-8.5,3.8-8.5,8.5v28.4H15.1
				c-4.7,0-8.5,3.8-8.5,8.5v19.9c0,4.7,3.8,8.5,8.5,8.5h90.7c4.8,0,8.7-3.9,8.7-8.7V15.7C114.5,11,110.6,7.1,105.8,7.1z"/>
		</g>
		<g>
			<defs>
				<path id="SVGID_2_" d="M105.8,7.1H86.3c-4.8,0-8.7,3.9-8.7,8.7v25.4H49.2c-4.7,0-8.5,3.8-8.5,8.5v28.4H15.1
					c-4.7,0-8.5,3.8-8.5,8.5v19.9c0,4.7,3.8,8.5,8.5,8.5h90.7c4.8,0,8.7-3.9,8.7-8.7V15.7C114.5,11,110.6,7.1,105.8,7.1z"/>
			</defs>
			<use xlink:href="#SVGID_2_"  style="overflow:visible;fill:#FFFFFF;"/>
			<clipPath id="SVGID_3_">
				<use xlink:href="#SVGID_2_"  style="overflow:visible;"/>
			</clipPath>
			<g class="st1">
				<path class="st0" d="M105.8,7.1H86.3c-4.8,0-8.7,3.9-8.7,8.7V115h28.2c4.8,0,8.7-3.9,8.7-8.7V15.7C114.5,11,110.6,7.1,105.8,7.1
					z"/>
				<path class="st0" d="M40.6,49.7v28.4H15.1c-4.7,0-8.5,3.8-8.5,8.5v19.9c0,4.7,3.8,8.5,8.5,8.5h62.5V41.1H49.2
					C44.5,41.1,40.6,45,40.6,49.7z"/>
			</g>
		</g>
	</g>
</g>
</svg>
