<?xml version="1.0" encoding="utf-8"?>
<!-- Generator: Adobe Illustrator 20.0.0, SVG Export Plug-In . SVG Version: 6.00 Build 0)  -->
<svg version="1.1" id="Layer_1" xmlns="http://www.w3.org/2000/svg" xmlns:xlink="http://www.w3.org/1999/xlink" x="0px" y="0px"
	 viewBox="0 0 160 43.8" style="enable-background:new 0 0 160 43.8;" xml:space="preserve">
<style type="text/css">
	.st0{fill:#FFFFFF;}
</style>
<g>
	<g>
		<path class="st0" d="M32.3,30.4c2.4-2.9,3.8-6.7,3.8-10.7S34.7,11.8,32.3,9l-11,10.7L32.3,30.4z"/>
		<path class="st0" d="M29.9,32.8l-10.7-11l-10.7,11l-3.6,3.6c3.8,3.3,8.8,5.2,14.3,5.2s10.5-1.9,14.3-5.2L29.9,32.8z M19.2,27.1
			l4.5,4.5h-8.8L19.2,27.1z"/>
		<path class="st0" d="M19.2,2.5c-9.5,0-16.9,7.6-16.9,16.9c0,4.1,1.4,7.9,3.8,10.7l24-24C27,3.9,23.2,2.5,19.2,2.5z"/>
	</g>
	<g>
		<path class="st0" d="M55.4,9.7c4.3,0,6.4,2.4,6.4,2.4l-1.4,2.4c0,0-1.9-1.9-4.8-1.9c-3.8,0-6,2.9-6,6s2.1,6.2,6,6.2
			c3.1,0,5-2.1,5-2.1l1.7,2.4c0,0-2.4,2.9-6.9,2.9c-5.2,0-9.1-4.1-9.1-9.3C46.6,13.7,50.4,9.7,55.4,9.7z"/>
		<path class="st0" d="M71.4,19.7h0.5v-0.2c0-1.7-1-2.1-2.4-2.1c-1.7,0-3.6,1.2-3.6,1.2l-1.2-2.1c0,0,1.9-1.4,5-1.4
			c3.3,0,5.2,1.9,5.2,5v7.6H72v-1c0-0.5,0-1,0-1l0,0c0,0-1,2.1-3.8,2.1c-2.1,0-4.3-1.4-4.3-3.8C64,19.9,69.2,19.7,71.4,19.7z
			 M69,25.4c1.7,0,2.9-1.7,2.9-3.3v-0.2h-0.5c-1.7,0-4.3,0.2-4.3,1.9C67.1,24.7,67.8,25.4,69,25.4z"/>
		<path class="st0" d="M78.1,10.1h3.1v13.1c0,1.4,0.5,1.7,1.2,1.7c0.2,0,0.5,0,0.5,0v2.6c0,0-0.5,0-1,0c-1.7,0-3.8-0.5-3.8-4.1
			L78.1,10.1L78.1,10.1z"/>
		<path class="st0" d="M85,10.1h3.1v13.1c0,1.4,0.5,1.7,1.2,1.7c0.2,0,0.5,0,0.5,0v2.6c0,0-0.5,0-1,0c-1.7,0-3.8-0.5-3.8-4.1
			L85,10.1L85,10.1z"/>
		<path class="st0" d="M92.6,17.5h-1.7v-2.4h1.7v-3.6h3.1v3.6h2.9v2.4h-2.9v5c0,2.1,1.7,2.4,2.4,2.4c0.2,0,0.5,0,0.5,0v2.6
			c0,0-0.2,0-1,0c-1.7,0-5.2-0.5-5.2-4.8L92.6,17.5L92.6,17.5z"/>
		<path class="st0" d="M107.4,14.7c3.8,0,6.9,2.9,6.9,6.7s-3.1,6.7-6.9,6.7s-6.9-2.6-6.9-6.7C100.5,17.5,103.6,14.7,107.4,14.7z
			 M107.4,25.1c2.1,0,3.8-1.7,3.8-3.8s-1.7-3.8-3.8-3.8c-2.1,0-3.8,1.7-3.8,3.8S105.2,25.1,107.4,25.1z"/>
		<path class="st0" d="M116.7,14.9h3.1v7.4c0,1.4,0.2,2.6,1.9,2.6c2.4,0,3.6-1.9,3.6-4.3v-5.7h3.1v12.6h-3.1v-1.4c0-0.5,0-1,0-1l0,0
			c-0.7,1.4-2.1,2.6-4.3,2.6c-2.6,0-4.3-1.4-4.3-4.8L116.7,14.9L116.7,14.9z"/>
		<path class="st0" d="M137.7,14.7c3.3,0,4.8,1.9,4.8,1.9l-1.4,2.1c0,0-1.4-1.4-3.3-1.4c-2.4,0-3.8,1.7-3.8,3.8s1.4,3.8,3.8,3.8
			c2.1,0,3.8-1.7,3.8-1.7l1.2,2.1c0,0-1.7,2.1-5.2,2.1c-4.3,0-6.9-2.9-6.9-6.7C131,17.8,133.6,14.7,137.7,14.7z"/>
		<path class="st0" d="M145.3,10.1h3.1v6c0,0.7,0,1,0,1l0,0c0.7-1.2,2.1-2.4,4.3-2.4c2.9,0,4.3,1.4,4.3,4.8v8.1h-3.1v-7.4
			c0-1.4-0.2-2.6-1.9-2.6s-2.9,1-3.3,2.6c-0.2,0.5-0.2,1-0.2,1.7v5.7h-3.1V10.1H145.3z"/>
	</g>
</g>
</svg>
