<?xml version="1.0" encoding="utf-8"?>
<!-- Generator: Adobe Illustrator 20.0.0, SVG Export Plug-In . SVG Version: 6.00 Build 0)  -->
<svg version="1.1" id="Layer_1" xmlns="http://www.w3.org/2000/svg" xmlns:xlink="http://www.w3.org/1999/xlink" x="0px" y="0px"
	 viewBox="0 0 510 90" style="enable-background:new 0 0 510 90;" xml:space="preserve">
<style type="text/css">
	.st0{fill:#7FA934;}
	.st1{fill:#AAADAE;}
</style>
<g>
	<path class="st0" d="M83.8,34.2c0,0-1.3,0.5-1.8,0.7s-0.5,0.2-1,0.3c-0.5,0.2-1.1,0.3-1.6,0.5c-0.5,0.1-0.4,0.1-0.8,0.2
		c-0.4,0.1-1.4,0.4-1.7,0.4c-0.3,0.1-1.6,0.3-2,0.4c-0.2,0-0.3,0.1-0.5,0.1c-0.1,0-0.5,0.1-0.9,0.2c0.4-0.3,0.8-0.6,1.2-0.9
		c0.2-0.2,0.4-0.3,0.6-0.5c0.1-0.1,0.2-0.2,0.3-0.2c0.1-0.1,0.2-0.2,0.3-0.3c0.2-0.2,0.4-0.3,0.5-0.5c0.2-0.2,0.3-0.3,0.5-0.5
		c1.3-1.4,2.4-2.9,3.1-4.2c0.8-1.4,1.3-2.7,1.6-3.8c0.1-0.3,0.3-1.1,0.3-1.2s0.3-1.4,0.3-1.4c0.1-0.5,0.1-0.7,0.1-0.7
		c0.4-3.1-1.8-6-4.9-6.4c-2.8-0.4-5.4,1.4-6.2,4c0,0-0.1,0.2-0.2,0.6s-0.3,0.6-0.4,1c-0.2,0.4-0.5,1-0.9,1.5
		c-0.4,0.6-0.9,1.1-1.6,1.7c-0.3,0.3-0.7,0.6-1.1,0.9s-0.9,0.6-1.4,0.8c-0.4,0.2-0.9,0.5-1.4,0.7c-3.1-1.8-6.7-2.9-10.6-2.9
		s-7.5,1-10.6,2.9c-0.5-0.2-1-0.4-1.4-0.7c-0.5-0.3-0.9-0.6-1.4-0.8c-0.4-0.3-0.8-0.6-1.1-0.9c-0.7-0.6-1.2-1.2-1.6-1.7
		c-0.4-0.6-0.7-1.1-0.9-1.5s-0.3-0.6-0.4-1c-0.1-0.4-0.2-0.6-0.2-0.6c-0.8-2.6-3.4-4.4-6.2-4c-3.1,0.4-5.3,3.3-4.9,6.4
		c0,0,0,0.2,0.1,0.7c0,0,0.3,1.3,0.3,1.5c0,0.1,0.2,0.9,0.3,1.2c0.3,1.1,0.8,2.4,1.6,3.8c0.8,1.4,1.8,2.9,3.1,4.2
		c0.2,0.2,0.3,0.4,0.5,0.5c0.2,0.2,0.3,0.3,0.5,0.5c0.1,0.1,0.2,0.2,0.3,0.3c0.1,0.1,0.2,0.2,0.3,0.2c0.2,0.2,0.4,0.3,0.6,0.5
		c0.4,0.3,0.8,0.6,1.2,0.9c-0.4-0.1-0.8-0.1-0.9-0.2c-0.2,0-0.4-0.1-0.5-0.1c-0.3-0.1-1.7-0.3-2-0.4c-0.3-0.1-1.4-0.3-1.7-0.4
		c-0.4-0.1-0.3-0.1-0.8-0.2s-1.1-0.3-1.6-0.5s-0.5-0.2-1-0.3c-0.5-0.2-1.8-0.7-1.8-0.7c-2.6-1-5.5,0-7,2.4c-1.6,2.7-0.7,6.2,2,7.8
		c0,0,0.2,0.1,0.7,0.4c0.2,0.1,0.9,0.5,0.9,0.5c0.1,0,0.4,0.2,0.5,0.2c0.2,0.1,0.5,0.2,0.7,0.4c0.1,0.1,0.7,0.4,0.8,0.4
		c0.3,0.1,0.5,0.2,0.8,0.4c0.3,0.1,1.5,0.6,1.9,0.8c0.3,0.1,1.8,0.6,2.1,0.8c0.2,0.1,2,0.6,2.4,0.7c0.2,0.1,1.1,0.3,1.3,0.3
		c0.4,0.1,1.5,0.4,1.9,0.5c-0.1,0.1-0.3,0.2-0.4,0.3c-2.1,1.3-3.9,2.9-5.4,4.6c-0.4,0.4-0.7,0.9-1.1,1.3c-0.2,0.2-0.8,1.1-0.9,1.3
		c-0.1,0.1-0.7,1.1-0.8,1.4c-0.3,0.4-0.5,0.9-0.7,1.3c-0.1,0.1-0.4,1.1-0.5,1.3c-0.2,0.4-0.3,0.7-0.4,1.3c-0.1,0.5-0.3,1-0.3,1.2
		c0,0.2-0.1,0.4-0.2,0.8s-0.2,1.6-0.2,1.6c0,0.2-0.1,0.7-0.1,1.7s0,1,0,1c0.1,2.8,2.2,5.1,5.1,5.4c3.1,0.4,6-1.9,6.3-5
		c0,0,0.1-0.8,0.1-1.1s0.2-0.6,0.3-1s0.4-1.1,0.8-1.7c0.4-0.7,1.3-1.7,1.7-2.1c0.4-0.4,0.8-0.7,1-0.8c0.1-0.1,0.5-0.4,0.7-0.5
		c0.2-0.2,0.5-0.3,0.8-0.5c0.1-0.1,0.4-0.2,0.7-0.4c3.8,3.7,9,6,14.7,6s10.9-2.3,14.7-6c0.3,0.2,0.6,0.3,0.7,0.4
		c0.4,0.2,0.6,0.4,0.8,0.5c0.2,0.2,0.6,0.4,0.7,0.5s0.6,0.4,1,0.8s1.3,1.4,1.7,2.1c0.4,0.7,0.7,1.3,0.8,1.7s0.2,0.8,0.3,1
		c0.1,0.4,0.1,1.1,0.1,1.1c0.4,3.1,3.2,5.4,6.3,5c2.8-0.3,5-2.7,5.1-5.4c0,0,0-0.1,0-1s-0.1-1.4-0.1-1.6c0,0-0.2-1.3-0.2-1.7
		c-0.1-0.4-0.1-0.6-0.2-0.8c0-0.2-0.2-0.7-0.3-1.2s-0.2-0.8-0.4-1.3c-0.1-0.2-0.5-1.2-0.5-1.3c-0.2-0.4-0.4-0.9-0.7-1.3
		c-0.1-0.2-0.7-1.2-0.8-1.4c-0.1-0.2-0.8-1.1-0.9-1.3c-0.3-0.5-0.7-0.9-1.1-1.3c-1.5-1.7-3.4-3.3-5.4-4.6c-0.1-0.1-0.3-0.2-0.4-0.3
		c0.4-0.1,1.5-0.4,1.9-0.5c0.2-0.1,1.1-0.3,1.3-0.3c0.4-0.1,2.2-0.7,2.4-0.7c0.4-0.1,1.8-0.6,2.1-0.8c0.3-0.1,1.6-0.6,1.9-0.8
		c0.3-0.1,0.6-0.2,0.8-0.4c0.1,0,0.7-0.3,0.8-0.4c0.3-0.1,0.5-0.2,0.7-0.4c0.1-0.1,0.4-0.2,0.5-0.2c0,0,0.7-0.4,0.9-0.5
		c0.4-0.3,0.7-0.4,0.7-0.4c2.7-1.7,3.6-5.2,2-7.9C89.4,34.2,86.4,33.2,83.8,34.2z M59.9,55.7c-1.7,1.3-3.9,1.9-6.6,1.9
		c-1.9,0-3.5-0.3-5-1s-2.6-1.6-3.4-2.8c-0.8-1.2-1.2-2.4-1.2-3.8h4.9c0.1,1.2,0.5,2.1,1.4,2.8c0.8,0.7,2,1,3.3,1s2.4-0.3,3.1-0.8
		c0.6-0.5,0.9-1.2,0.9-2c0-0.9-0.4-1.6-1.1-2.1s-2-0.9-3.7-1.3c-1.7-0.4-3.2-0.8-4.3-1.4c-2.5-1.2-3.8-3-3.8-5.3
		c0-2,0.8-3.6,2.5-4.9c1.7-1.3,3.7-2,6.3-2c2.7,0,4.9,0.7,6.6,2s2.5,3.1,2.5,5.2h-5.1c0-1-0.4-1.8-1.1-2.4c-0.7-0.7-1.7-1-2.9-1
		c-1.1,0-2,0.3-2.7,0.8s-1.1,1.2-1.1,2.1c0,0.8,0.3,1.4,1,1.8c0.7,0.4,2,0.9,4,1.3s3.6,1,4.7,1.6c1.1,0.6,2,1.3,2.5,2.2
		c0.6,0.9,0.8,1.9,0.8,3.1C62.4,52.7,61.6,54.4,59.9,55.7z"/>
	<path class="st1" d="M114.6,35.9c0.9-0.6,2.2-1,3.8-1c1.7,0,3.1,0.4,4,1.2s1.4,2,1.4,3.5h6.7c0-2-0.5-3.8-1.5-5.3
		c-1.1-1.6-2.5-2.8-4.3-3.6c-1.8-0.9-3.9-1.3-6.2-1.3s-4.4,0.4-6.3,1.2c-1.9,0.7-3.3,1.8-4.3,3.2s-1.5,2.9-1.5,4.7
		c0,3.4,1.9,6.1,5.6,8.1c1.3,0.7,3.2,1.4,5.5,2.2s3.9,1.5,4.8,2.2s1.3,1.6,1.3,2.9c0,1.2-0.4,2.1-1.4,2.9c-0.8,0.7-2.1,1-3.7,1
		c-4.3,0-6.5-1.8-6.5-5.4h-6.5c0,2.1,0.5,4,1.6,5.6s2.6,2.9,4.7,3.8c2.1,0.9,4.4,1.4,6.9,1.4c3.6,0,6.5-0.8,8.6-2.4
		c2.1-1.7,3.2-3.9,3.2-6.7c0-2.6-0.8-4.7-2.6-6.4c-1.8-1.7-4.6-3.1-8.4-4.3c-2.1-0.6-3.6-1.3-4.7-2s-1.6-1.6-1.6-2.7
		C113.2,37.5,113.7,36.6,114.6,35.9z"/>
	<polygon class="st1" points="152.1,53.5 143.7,29.8 135,29.8 135,62.5 141.7,62.5 141.7,53.6 141,38.2 149.7,62.6 154.3,62.6 
		163.1,38.2 162.4,53.6 162.4,62.5 169.2,62.5 169.2,29.8 160.4,29.8 	"/>
	<path class="st1" d="M185,29.8l-12.2,32.6h7.2l2.2-6.7H194l2.2,6.8h7.2l-12.2-32.7C191.2,29.8,185,29.8,185,29.8z M184,50.3
		l4.1-12.2l4.1,12.2H184z"/>
	<path class="st1" d="M229.2,45.3c0.9-1.5,1.4-3.4,1.4-5.6c0-3.1-1-5.6-3.1-7.3s-5-2.6-8.9-2.6h-12.1v32.7h6.7v-12h5.4l6.1,12.1h7.2
		v-0.3l-7.1-13.4C226.8,48,228.2,46.8,229.2,45.3z M222.6,43.8c-0.9,0.9-2.2,1.3-3.9,1.3h-5.4v-9.8h5.4c1.8,0,3.1,0.4,4,1.3
		c0.9,0.8,1.3,2.1,1.3,3.6C224,41.8,223.5,42.9,222.6,43.8z"/>
	<polygon class="st1" points="232.7,35.3 242.6,35.3 242.6,62.5 249.3,62.5 249.3,35.3 259.3,35.3 259.3,35.3 259.3,29.8 
		232.7,29.8 	"/>
	<path class="st1" d="M270.1,37.3c1.1-1.6,2.8-2.4,5-2.4c2.1,0,3.6,0.4,4.6,1.4s1.6,2.5,1.8,4.6h6.7c-0.4-3.6-1.7-6.5-4-8.5
		s-5.3-3-9.1-3c-2.8,0-5.1,0.6-7.2,1.9c-2,1.3-3.6,3.1-4.7,5.5c-1.1,2.4-1.7,5.2-1.7,8.3v2c0,4.9,1.2,8.8,3.6,11.6
		c2.4,2.8,5.7,4.2,9.9,4.2c3.9,0,7-1,9.3-3s3.6-4.8,3.9-8.3h-6.6c-0.2,2-0.8,3.4-1.8,4.4c-1.1,0.9-2.6,1.4-4.7,1.4
		c-2.3,0-4-0.8-5.1-2.4c-1.1-1.6-1.6-4.2-1.6-7.7v-2.5C268.4,41.4,269,38.9,270.1,37.3z"/>
	<path class="st1" d="M302,29.8l-12.1,32.6h7.2l2.2-6.7h11.8l2.1,6.8h7.2l-12.2-32.7C308.2,29.8,302,29.8,302,29.8z M301.1,50.3
		l4.1-12.2l4.1,12.2H301.1z"/>
	<polygon class="st1" points="330.3,29.8 323.6,29.8 323.6,62.5 344.6,62.5 344.6,57.1 330.3,57.1 	"/>
	<polygon class="st1" points="355.2,29.8 348.5,29.8 348.5,62.5 369.5,62.5 369.5,57.1 355.2,57.1 	"/>
	<path class="st1" d="M392.2,45.7c1.4-0.6,2.6-1.5,3.4-2.7s1.2-2.6,1.2-4.2c0-3-1.1-5.2-3.1-6.7s-5-2.3-9-2.3h-11.4v32.7H386
		c3.7-0.1,6.6-0.9,8.6-2.5s3-4,3-7.1c0-1.9-0.4-3.4-1.4-4.7C395.2,47,393.9,46.1,392.2,45.7z M380.1,35.2h4.7c1.9,0,3.2,0.3,4.1,1
		s1.3,1.7,1.3,3.2c0,2.7-1.7,4-5.1,4.1h-5V35.2z M389.6,56c-0.9,0.7-2.1,1.1-3.7,1.1h-5.8v-8.8h6.2c3,0.1,4.6,1.6,4.6,4.6
		C390.9,54.2,390.5,55.2,389.6,56z"/>
	<path class="st1" d="M412.1,29.7l-12.2,32.7h7.2l2.2-6.7h11.8l2.2,6.7h7.2l-12.2-32.7H412.1z M411.1,50.3l4.1-12.2l4.1,12.2H411.1z
		"/>
	<path class="st1" d="M440.7,37.3c1.1-1.6,2.8-2.4,5-2.4c2.1,0,3.6,0.4,4.6,1.4s1.6,2.5,1.8,4.6h6.7c-0.4-3.6-1.7-6.5-4-8.5
		s-5.3-3-9.1-3c-2.8,0-5.1,0.6-7.2,1.9c-2,1.3-3.6,3.1-4.7,5.5s-1.7,5.2-1.7,8.3v2c0,4.9,1.2,8.8,3.6,11.6s5.7,4.2,9.9,4.2
		c3.9,0,7-1,9.3-3s3.6-4.8,3.9-8.3h-6.6c-0.2,2-0.8,3.4-1.8,4.4c-1.1,0.9-2.6,1.4-4.7,1.4c-2.3,0-4-0.8-5.1-2.4
		c-1.1-1.6-1.6-4.2-1.6-7.7v-2.5C439,41.4,439.6,38.9,440.7,37.3z"/>
	<polygon class="st1" points="478,44.3 489.6,29.8 481.3,29.8 473,40.5 470,44.6 470,29.8 463.3,29.8 463.3,62.5 470,62.5 470,53.2 
		473.5,49.4 481.9,62.5 489.9,62.5 	"/>
</g>
</svg>
