<?xml version="1.0" encoding="utf-8"?>
<!-- Generator: Adobe Illustrator 20.0.0, SVG Export Plug-In . SVG Version: 6.00 Build 0)  -->
<svg version="1.1" id="Слой_1" xmlns="http://www.w3.org/2000/svg" xmlns:xlink="http://www.w3.org/1999/xlink" x="0px" y="0px"
	 viewBox="0 0 427.7 149.1" style="enable-background:new 0 0 427.7 149.1;" xml:space="preserve">
<style type="text/css">
	.st0{fill:#FFFFFF;}
</style>
<title>Ресурс 3</title>
<path class="st0" d="M346.3,35.2c-0.8-3.1-3.8-5.1-7-4.7c-7.9,0-15.7,0-23.6,0c-16.5,0.6-29.4,14.5-28.7,31
	c0.2,4.2,1.2,8.3,3.1,12.1c2.3,4.4,5.7,8.1,9.8,11c-0.5,3.6-0.5,7.3,0,11c0.9,2.4-0.2,5-2.5,6c-9.7,6-12.7,18.8-6.7,28.5
	c0.8,1.3,1.8,2.6,2.9,3.7c13.3,12.6,34.1,12.6,47.3,0c8-7.9,8-20.8,0.1-28.8l-0.1-0.1c-5.6-5.7-13.1-9.1-21-9.4
	c-1.7,0.2-3.5,0.2-5.3,0c-1.1,0-1.9-1.4-2.7-2.2c0.9-0.9,1.9-1.6,3-2.1c1.8-0.2,3.5-0.2,5.3,0c14.4-1.4,25.7-12.9,26.8-27.3
	c0.5-6.9-1.3-13.7-5.2-19.4l0.9-0.7c3.3-1.2,5-4.8,3.8-8.1C346.4,35.5,346.3,35.4,346.3,35.2z M330.8,112.9
	c3.6,2.7,4.4,7.7,1.7,11.3c-0.5,0.6-1.1,1.2-1.7,1.7c-8.1,6-19.2,6-27.3,0c-3.8-2.6-4.8-7.7-2.2-11.6c0.6-0.9,1.4-1.6,2.2-2.2
	c8.3-5.8,19.4-5.5,27.3,0.9V112.9z M316.8,77.6c-9.5,0-17.2-7.7-17.2-17.2s7.7-17.2,17.2-17.2c9.4,0,17,7.5,17.2,16.9
	c0.2,9.5-7.3,17.4-16.8,17.6C317.1,77.7,316.9,77.7,316.8,77.6L316.8,77.6L316.8,77.6z"/>
<path class="st0" d="M217.2,15.7c0.2-1.4,0.2-2.8,0-4.2c-0.7-3.2-3.9-5.2-7.1-4.5c-0.7,0.2-1.4,0.5-2,0.9c-1.4,1.2-2.5,2.7-3.2,4.4
	c-5.6,13.3-11,26.6-16.7,39.9l-6.4,15.2l-1.3-3l-18.2-41.9c-1.6-3.9-3.2-7.9-4.9-11.7c-1.1-2.7-3.9-4.3-6.8-3.7
	c-2.9,0.6-5.1,3.1-5.2,6c0,0.7,0,1.3,0,2c0,22.4,0,44.7,0,67.2c-0.1,0.8-0.1,1.7,0,2.5c0.3,3.1,2.9,5.5,6,5.6c3.2,0.1,6-2.2,6.4-5.4
	c0.1-1.1,0.1-2.2,0-3.3c0-10.7,0-21.5,0-32.2c0-0.9,0-1.9,0-3c0.7,0.5,1.3,1.2,1.5,2.1l15.3,36.9c0.8,2.8,3.3,4.7,6.1,4.8
	c3,0,5.6-1.9,6.4-4.8c1.2-3,2.4-5.8,3.6-8.7l12.9-31c0,0.4,0,0.8,0,1.2c0,6.7,0,13.5,0,20.3c0,5.5,0,11,0,16.3
	c-0.2,3.5,2.4,6.5,5.9,6.8c0.1,0,0.2,0,0.3,0c3.6-0.1,6.4-3,6.4-6.6v-0.1c0-0.9,0-1.6,0-2.5C216.9,59.4,217.2,37.5,217.2,15.7z"/>
<path class="st0" d="M74.7,67.5c-2.5-1.3-5.5-0.6-7.2,1.5c-6.8,7.2-16.8,10.5-26.5,8.8c-16.2-2.7-27.1-18-24.4-34.2
	s18-27.1,34.2-24.4c6.4,1.1,12.2,4.2,16.6,8.8c2.4,2.5,6.4,2.5,8.8,0l0,0c2.2-2.5,2-6.3-0.5-8.5c-0.1-0.1-0.1-0.1-0.2-0.1l-0.9-1
	C58.1,2.8,32,3.6,16.4,20.2C0.9,36.8,1.7,62.9,18.3,78.5c7.7,7.2,17.9,11.2,28.5,11.2c11.2,0.2,21.9-4.3,29.6-12.4
	c1.1-1.1,1.9-2.5,2.2-4.1C78.9,70.6,77.2,68.2,74.7,67.5z"/>
<path class="st0" d="M281.2,54.8c-2.6-14.9-16.1-25.3-31.1-24.2c-16.5,1.1-28.9,15.4-27.8,31.9c1,13.9,11.4,25.3,25.2,27.5
	c7.7,1.2,15.5-0.5,21.9-4.9l0.7,1c1,3,4.1,4.8,7.2,4.1c3.1-0.8,5.2-3.7,4.9-6.9c0-2,0-3.9,0-5.8C282.3,69.8,281.9,62.3,281.2,54.8z
	 M252,77.7c-9.5,0-17.3-7.7-17.3-17.3c0-9.5,7.7-17.3,17.3-17.3c9.5,0,17.3,7.7,17.3,17.3S261.5,77.7,252,77.7z"/>
<path class="st0" d="M111.2,31.2C95.1,31.2,82,44.3,82,60.4s13.1,29.2,29.2,29.2s29.2-13.1,29.2-29.2S127.3,31.2,111.2,31.2z
	 M111.2,78.2c-9.8,0.1-17.8-7.7-18-17.5c-0.1-9.8,7.7-17.8,17.5-18c9.7-0.1,17.7,7.6,18,17.3c0.1,9.7-7.5,17.7-17.2,18.2H111.2z"/>
<path class="st0" d="M421,71.8c-2.4-2.5-6.4-2.6-8.8-0.2c-0.1,0.1-0.1,0.1-0.2,0.2l-1.9,1.6c-7.5,6-18.5,4.7-24.5-2.8
	c-1.9-2.4-3.1-5.2-3.6-8.2c-1.2-7,2-14,8-17.6c6.1-3.8,13.9-3.4,19.6,0.9l2.3,2c2.5,2.4,6.5,2.4,8.9-0.1s2.4-6.5-0.1-8.9
	c-11.4-12-30.3-12.4-42.3-1S366,68,377.4,80c4.3,4.6,10,7.6,16.2,8.8c10,2.1,20.4-1.3,27.3-8.8C423.1,77.6,423.1,74.1,421,71.8z"/>
<path class="st0" d="M364.1,38.1c0-3.4-2.8-6.2-6.2-6.3c-3.4,0-6.2,2.8-6.3,6.2l0,0c0,15.3,0,30.5,0,45.8c-0.4,3.4,2,6.5,5.4,7
	c0.2,0,0.5,0,0.7,0c3.5,0,6.3-2.9,6.3-6.4c0-0.3,0-0.6-0.1-0.8c0-7.5,0-15,0-21.9S364.1,45.3,364.1,38.1z"/>
<path class="st0" d="M357.9,22.5c3.4,0,6.2-2.7,6.2-6.1c0.1-3.4-2.5-6.2-5.9-6.4c-0.1,0-0.2,0-0.3,0c-3.3-0.1-6.1,2.5-6.2,5.8
	c0,0.1,0,0.2,0,0.3c-0.1,3.4,2.5,6.2,5.9,6.4C357.7,22.5,357.8,22.5,357.9,22.5z"/>
</svg>
