<?xml version="1.0" encoding="utf-8"?>
<!-- Generator: Adobe Illustrator 20.0.0, SVG Export Plug-In . SVG Version: 6.00 Build 0)  -->
<svg version="1.1" id="Layer_1" xmlns="http://www.w3.org/2000/svg" xmlns:xlink="http://www.w3.org/1999/xlink" x="0px" y="0px"
	 viewBox="0 0 901.9 171" style="enable-background:new 0 0 901.9 171;" xml:space="preserve">
<style type="text/css">
	.st0{fill:#FFFFFF;}
</style>
<g>
	<path class="st0" d="M193.4,50.4h-36.3v7.1c0,5.1-0.1,10.4-0.2,16.1c-0.2,5.6-0.6,11.3-1.4,17c-0.8,5.7-1.9,11.4-3.3,17
		c-1.5,5.6-3.5,10.9-6.1,15.7h-5v26.9h11.5v-17.6h37.1v17.6h10.2v-26.9h-6.5L193.4,50.4L193.4,50.4z M180.6,123.4h-23.2
		c2.2-3.6,3.9-7.8,5.4-12.6c1.4-4.9,2.5-10,3.4-15.5s1.5-11,1.8-16.7s0.5-11.1,0.5-16.1v-1.6h12.2L180.6,123.4L180.6,123.4z"/>
	<path class="st0" d="M233.9,48.3c-4.5,0-8.4,1.3-11.7,4c-3.2,2.6-5.9,6.2-8,10.5c-2.1,4.4-3.7,9.4-4.7,15.1
		c-1,5.7-1.5,11.6-1.5,17.8c0,12.8,2.5,22.6,7.6,29.7c5.1,7,11.8,10.5,20.3,10.5c4.1,0,7.8-0.6,11.1-1.7c3.3-1.1,6.3-2.5,9-4
		l-1.5-9.2c-1.5,0.6-3.6,1.3-6.2,2c-2.7,0.7-5.2,1.1-7.7,1.1c-6.6,0-11.4-2.5-14.5-7.5s-4.6-12-4.6-21h34.9v-7.2
		c0-13.2-2.1-23.1-6.2-29.9C246,51.6,240.6,48.3,233.9,48.3 M243,84.4h-21.4c0.2-3.7,0.6-7.1,1.1-10.2s1.3-5.9,2.3-8.2
		c1-2.3,2.2-4.1,3.6-5.4c1.4-1.3,3-1.9,4.9-1.9c2.6,0,4.7,1.8,6.3,5.3c1.6,3.5,2.6,8.5,3.1,14.8c0,0.8,0,1.5,0.1,2.1
		s0.1,1.2,0.1,1.8v1.7H243z"/>
	<path class="st0" d="M360.4,122.9c-2.5,0.7-4.9,1.1-7.3,1.1c-6.3,0-10.9-2.8-13.9-8.4s-4.5-13.4-4.5-23.2c0-4.2,0.3-8.4,1-12.4
		c0.7-4.1,1.6-7.6,2.8-10.8c1.2-3.1,2.7-5.7,4.5-7.6c1.8-1.9,3.9-2.9,6.2-2.9c1.9,0,3.9,0.6,5.8,1.8s3.6,2.6,5.1,4.4l6.6-11.2
		c-2.3-1.6-4.8-2.9-7.7-3.9c-2.9-1-6.1-1.5-9.7-1.5c-4,0-7.7,1.1-11.2,3.4c-3.5,2.3-6.4,5.5-8.9,9.6s-4.5,9.1-5.9,14.9
		c-1.5,5.8-2.2,12.3-2.2,19.5c0,13,2.6,22.9,7.7,29.8s11.9,10.4,20.2,10.4c3.9,0,7.4-0.6,10.5-1.7c3.1-1.1,5.9-2.5,8.4-4l-1.3-9.2
		C364.9,121.6,362.9,122.2,360.4,122.9"/>
	<path class="st0" d="M36.2,11.6c-4.2,1.7-7.8,4.3-10.9,7.7s-5.6,7.6-7.5,12.6C16,36.9,15,42.6,15,49.1c0,8.4,1.6,15.7,4.9,21.8
		s8.8,11,16.5,14.7l-28.1,47H23l25.9-45h8.4v45h12.8V9H49.4C44.8,9,40.4,9.9,36.2,11.6 M57.4,77.1h-6.8c-2.8,0-5.5-0.5-8.1-1.5
		c-2.6-1-4.9-2.7-7-4.9c-2.1-2.3-3.7-5.1-4.9-8.6c-1.2-3.5-1.9-7.8-1.9-12.8c0-5.2,0.6-9.6,1.7-13.3c1.1-3.7,2.6-6.7,4.5-9.1
		s4.1-4.1,6.5-5.2c2.4-1.1,4.9-1.6,7.5-1.6h8.4L57.4,77.1L57.4,77.1z"/>
	<polygon class="st0" points="119.3,83.3 100.9,83.3 100.9,50.4 87.9,50.4 87.9,132.6 100.9,132.6 100.9,94.3 119.3,94.3 
		119.3,132.6 132.1,132.6 132.1,50.4 119.3,50.4 	"/>
	<polygon class="st0" points="315.1,50.4 301.3,50.4 283.7,86.7 282.2,88.3 282.2,50.4 269.2,50.4 269.2,133.9 282.2,133.9 
		282.2,90.9 283.7,92.7 303.6,133.9 318,133.9 294.7,88 	"/>
</g>
<g>
	<g>
		<path class="st0" d="M850,7.9H425v155h425l43.1-77.3L850,7.9z M433.8,154V16.8h411L883,85.5L844.8,154H433.8z"/>
	</g>
	<g>
		<path class="st0" d="M508.5,60.6l17.2,42.8l17.2-42.8h9V113H545V92.6l0.6-22.1L528.3,113H523l-17.2-42.4l0.7,21.9V113h-6.9V60.6
			H508.5z"/>
		<path class="st0" d="M579.1,113.7c-5.3,0-9.6-1.7-12.9-5.2c-3.3-3.5-5-8.1-5-13.9v-1.2c0-3.9,0.7-7.3,2.2-10.4
			c1.5-3,3.5-5.4,6.2-7.1s5.5-2.6,8.6-2.6c5.1,0,9,1.7,11.8,5s4.2,8.1,4.2,14.3v2.8h-26.4c0.1,3.8,1.2,6.9,3.4,9.3s4.9,3.5,8.2,3.5
			c2.4,0,4.3-0.5,6-1.4c1.6-1,3.1-2.2,4.3-3.8l4.1,3.2C590.6,111.2,585.7,113.7,579.1,113.7z M578.3,78.8c-2.7,0-4.9,1-6.8,2.9
			c-1.8,2-3,4.7-3.4,8.2h19.5v-0.5c-0.2-3.4-1.1-6-2.7-7.9C583.3,79.7,581.1,78.8,578.3,78.8z"/>
		<path class="st0" d="M630.6,79.4h-13.1V113h-6.7V79.4H598V74h32.6V79.4z"/>
		<path class="st0" d="M670,94c0,5.9-1.4,10.7-4.1,14.3c-2.7,3.6-6.4,5.4-11,5.4c-4.7,0-8.5-1.5-11.2-4.5V128H637V74h6.1l0.3,4.3
			c2.7-3.4,6.5-5,11.3-5c4.7,0,8.4,1.8,11.1,5.3c2.7,3.5,4.1,8.4,4.1,14.7V94H670z M663.4,93.2c0-4.4-0.9-7.9-2.8-10.4
			c-1.9-2.5-4.4-3.8-7.7-3.8c-4,0-7.1,1.8-9.1,5.4V103c2,3.6,5,5.3,9.2,5.3c3.2,0,5.7-1.3,7.6-3.8C662.4,102,663.4,98.2,663.4,93.2z
			"/>
		<path class="st0" d="M703.7,74h6.7v39h-6.7V84.6l-18,28.4H679V74h6.7v28.5L703.7,74z"/>
		<path class="st0" d="M733.2,96.4h-4.9V113h-6.7V74h6.7v16.5h4.4L745.8,74h8.1l-15.4,18.7l16.7,20.3h-8.5L733.2,96.4z"/>
		<path class="st0" d="M785,113c-0.4-0.8-0.7-2.1-0.9-4.1c-3.1,3.2-6.8,4.8-11.1,4.8c-3.8,0-7-1.1-9.5-3.3c-2.5-2.2-3.7-4.9-3.7-8.3
			c0-4.1,1.5-7.2,4.6-9.5c3.1-2.2,7.4-3.4,13-3.4h6.5v-3.1c0-2.3-0.7-4.2-2.1-5.6c-1.4-1.4-3.4-2.1-6.2-2.1c-2.4,0-4.4,0.6-6,1.8
			c-1.6,1.2-2.4,2.7-2.4,4.4h-6.7c0-1.9,0.7-3.8,2.1-5.6c1.4-1.8,3.3-3.2,5.6-4.3c2.4-1.1,5-1.6,7.8-1.6c4.5,0,8,1.1,10.6,3.4
			c2.5,2.2,3.9,5.3,4,9.3v17.9c0,3.6,0.5,6.4,1.4,8.5v0.6h-7V113z M773.9,107.9c2.1,0,4.1-0.5,5.9-1.6c1.9-1.1,3.2-2.5,4.1-4.2v-8
			h-5.2c-8.2,0-12.3,2.4-12.3,7.2c0,2.1,0.7,3.7,2.1,4.9C770,107.4,771.8,107.9,773.9,107.9z"/>
	</g>
</g>
</svg>
