<?xml version="1.0" encoding="utf-8"?>
<!-- Generator: Adobe Illustrator 20.0.0, SVG Export Plug-In . SVG Version: 6.00 Build 0)  -->
<svg version="1.1" id="Layer_1" xmlns="http://www.w3.org/2000/svg" xmlns:xlink="http://www.w3.org/1999/xlink" x="0px" y="0px"
	 viewBox="0 0 512 116" style="enable-background:new 0 0 512 116;" xml:space="preserve">
<style type="text/css">
	.st0{fill:#FFFFFF;}
</style>
<g>
	<path class="st0" d="M22.3,33.8v9.1H9.8v15.2h12.5v46.1h18.6V58.1h13.9l1.5-15.2H40.8v-9.4c0-5.7,1.7-8.2,7.5-8.2h8.2V11
		c-2.7-0.4-7.1-0.6-10.8-0.6C28.5,10.3,22.3,18.4,22.3,33.8z"/>
	<path class="st0" d="M100.4,52.3c-2.7-5.9-8.4-10.7-17.6-10.7c-17,0-25.1,12.9-25.1,30v3.9c0,17.1,8.1,30,25.1,30
		c9.3,0,15.1-4.6,17.6-10.6v9.3h17.8V42.9h-17.8C100.4,42.9,100.4,52.3,100.4,52.3z M99.6,76.7c0,8.8-3.9,14.3-11.5,14.3
		c-8.6,0-12-6.1-12-15.2v-4.4c0-9.1,3.4-15.2,12-15.2c7.6,0,11.5,5.5,11.5,14.3V76.7z"/>
	<path class="st0" d="M158.1,56.1c4.9,0,9.5,1.4,12.4,2.8l4.1-13.1c-3.7-2.6-10.6-4.1-17.8-4.1c-21.8,0-31.7,11.7-31.7,30.5V75
		c0,18.8,9.9,30.5,31.7,30.5c7.2,0,14-1.5,17.8-4.1l-4.1-13.1c-2.8,1.4-7.5,2.8-12.4,2.8c-10.1,0-14.4-5.8-14.4-15.7v-3.6
		C143.7,61.9,148,56.1,158.1,56.1z"/>
	<path class="st0" d="M207.2,41.6C187,41.6,177,53.1,177,70.5v5.4c0,18,8.8,29.8,32.2,29.8c8.9,0,18.9-1.9,23.8-4.5l-3.3-12.8
		c-5.4,2.3-12.8,3.7-19.7,3.7c-10.3,0-14-3.7-14.4-12.1h39v-9.8C234.6,53.2,226.2,41.6,207.2,41.6z M218,67.9h-22.4
		c0-8.2,3.2-13.5,11.6-13.5c8.1,0,10.8,5.3,10.8,12L218,67.9L218,67.9z"/>
	<path class="st0" d="M278.2,41.6c-8.6,0-14.6,4.4-17.3,9.8v-41l-18.6,1.7v92.1h17.5V95c2.6,5.9,9,10.6,18.3,10.6
		c17,0,25.3-12.9,25.3-30v-3.9C303.4,54.5,295.2,41.6,278.2,41.6z M284.9,75.9c0,8.6-3.4,15.1-12.2,15.1c-7.6,0-11.7-5.4-11.7-14.2
		v-6.4c0-8.8,4.1-14.2,11.7-14.2c8.9,0,12.2,6.4,12.2,15.1V75.9z"/>
	<path class="st0" d="M340.1,41.6c-20.5,0-30.5,12.8-30.5,30.4v3.1c0,17.7,10,30.4,30.5,30.4s30.5-12.8,30.5-30.4V72
		C370.7,54.4,360.6,41.6,340.1,41.6z M352.1,76.4c0,8.1-3.4,14.6-12,14.6s-12-6.4-12-14.6v-5.7c0-8.1,3.3-14.6,12-14.6
		c8.6,0,12,6.4,12,14.6V76.4z"/>
	<path class="st0" d="M407.4,41.6c-20.5,0-30.5,12.8-30.5,30.4v3.1c0,17.7,10,30.4,30.5,30.4s30.5-12.8,30.5-30.4V72
		C437.9,54.4,427.9,41.6,407.4,41.6z M419.4,76.4c0,8.1-3.4,14.6-12,14.6s-12-6.4-12-14.6v-5.7c0-8.1,3.3-14.6,12-14.6
		c8.6,0,12,6.4,12,14.6V76.4z"/>
	<polygon class="st0" points="482.2,73.2 501.4,42.9 481.7,42.9 463.4,72.2 463.4,10.5 444.9,12.1 444.9,104.3 463.4,104.3 
		463.4,74.2 482.5,104.3 502.2,104.3 	"/>
</g>
</svg>
