<?xml version="1.0" encoding="utf-8"?>
<!-- Generator: Adobe Illustrator 20.0.0, SVG Export Plug-In . SVG Version: 6.00 Build 0)  -->
<svg version="1.1" id="Layer_1" xmlns="http://www.w3.org/2000/svg" xmlns:xlink="http://www.w3.org/1999/xlink" x="0px" y="0px"
	 viewBox="0 0 414 135" style="enable-background:new 0 0 414 135;" xml:space="preserve">
<style type="text/css">
	.st0{fill:#FFFFFF;}
</style>
<g>
	<path class="st0" d="M71.6,12.4V12L48.3,45.8c-4.5,6.5-7.6,11.3-9.1,14.1V12h-30v110.5h30V85.6l8.8-5.3l21.8,42.3h33.6L69,61.8
		l34.9-49.4C103.9,12.4,71.6,12.4,71.6,12.4z"/>
	<polygon class="st0" points="175.7,50.3 162.4,23.9 149.1,50.3 119.8,54.5 141.1,75.1 136.1,104.1 162.4,90.4 188.7,104.1 
		183.7,75.1 205,54.5 	"/>
	<path class="st0" d="M397.8,24.7c-6.7-9.6-16.5-14.3-29.8-14.3c-13.6,0-23.6,4.5-30,13.8c-6.5,9.3-9.8,23.6-9.8,43.1
		c0,18.8,3.3,32.8,10,42.3c6.8,9.6,16.5,14.3,29.8,14.3c13.6,0,23.6-4.5,30-13.6s9.8-23.3,9.8-42.9
		C407.9,48.5,404.6,34.2,397.8,24.7z M375.9,92.8c-1.4,4.8-4.2,7.2-7.8,7.2c-3.8,0-6.3-2.3-7.8-6.9c-1.4-4.8-2.3-13.3-2.3-25.8
		s0.8-21.3,2.3-26c1.4-4.8,4.2-6.9,7.8-6.9c3.8,0,6.3,2.6,7.8,7.2c1.4,5,2.3,13.6,2.3,25.8C378.3,79.6,377.3,88.1,375.9,92.8z"/>
	<path class="st0" d="M294.6,54.5c-5-3.1-10.8-4.5-17.3-4.5h-4.5c-1.7,0-4.5,0.5-8.3,1.2l1.2-14.5h37.7V11.9h-62.9l-4.2,58.4l11,5.5
		c5.5-1.7,10.5-2.8,15.3-2.8c6.3,0,10.8,1.2,13.8,3.6c3,2.3,4.5,5.8,4.5,10c0,4.5-1.4,8.1-4.5,10.3c-3.1,2.3-7.2,3.6-12.8,3.6
		c-4,0-8.8-0.8-14.3-1.9c-5.5-1.2-10.5-3.1-14.8-5V118c8.3,4,18.8,6,31.6,6c15,0,26.3-3.3,33.8-9.8c7.6-6.5,11-16,11-28.3
		c0-6.9-1.4-13.3-4.2-18.6C303.8,61.6,299.8,57.5,294.6,54.5z"/>
</g>
</svg>
