<?xml version="1.0" encoding="utf-8"?>
<!-- Generator: Adobe Illustrator 20.0.0, SVG Export Plug-In . SVG Version: 6.00 Build 0)  -->
<svg version="1.1" id="Слой_1" xmlns="http://www.w3.org/2000/svg" xmlns:xlink="http://www.w3.org/1999/xlink" x="0px" y="0px"
	 viewBox="0 0 841.9 184.9" style="enable-background:new 0 0 841.9 184.9;" xml:space="preserve">
<style type="text/css">
	.st0{fill:#FFFFFF;}
</style>
<g>
	<path class="st0" d="M8.1,75c0-8.6,1.6-16.9,4.9-24.8c3.2-7.9,7.6-14.8,13.1-20.7s12.3-10.6,20.3-14.1s16.5-5.3,25.5-5.3
		c11.9,0,22.8,2.9,32.5,8.8c9.8,5.9,17.3,13.8,22.7,23.7s8.1,20.7,8.1,32.3c0,11.5-2.7,22.2-8.2,32.1c-5.4,9.9-13.1,17.8-22.9,23.7
		c-9.8,6-20.7,8.9-32.7,8.9c-8.9,0-17.3-1.7-25.2-5.2s-14.6-8.1-20.1-14c-5.5-5.8-9.9-12.7-13.1-20.7C9.7,91.9,8.1,83.6,8.1,75z
		 M20.9,75c0,14.9,4.9,27.6,14.7,38s21.9,15.6,36.2,15.6c9,0,17.4-2.4,25.1-7.2c7.7-4.8,13.9-11.3,18.5-19.5s6.9-17.2,6.9-26.9
		c0-14.8-5-27.5-14.9-38s-21.9-15.7-36-15.7c-9.2,0-17.6,2.4-25.3,7.2C38.3,33.2,32.2,39.8,27.7,48C23.2,56.3,20.9,65.2,20.9,75z"/>
	<path class="st0" d="M165.1,136.8V13.1h12v35.1c5.1-11.4,12.5-20.5,22.3-27.5c9.2-6.5,19.3-9.7,30.3-9.6c0.8,0,1.5,0,2.2,0v13.1
		h-1.3c-7.3,0-14.1,1.4-20.5,4.1s-12.1,6.6-17,11.7s-8.8,11.5-11.7,19.5c-2.9,7.9-4.3,16.8-4.3,26.6v50.7H165.1z"/>
	<path class="st0" d="M257.4,136.8V13.1h11.8v123.6h-11.8V136.8z"/>
	<path class="st0" d="M301.4,68.9c0-8.6,1.7-16.6,5.1-24.1s7.9-13.7,13.4-18.7c5.6-5,11.9-8.9,19-11.7s14.4-4.3,21.9-4.3
		c11.5,0,21.6,2.6,30.2,7.7s15.8,11.8,21.4,19.9V13.1h11.8v104.4c0,17.5-5.3,31.5-15.8,42c-11,11-25.9,16.5-44.9,16.5
		c-20.8,0-39.7-6.3-56.7-18.9l7-9.7c15.2,11.7,31.9,17.5,50,17.5c14.7,0,26.4-4.1,35.3-12.4c8.8-8.3,13.3-20.2,13.3-35.6V99
		c-13.3,19-30.5,28.5-51.6,28.5c-7.5,0-14.8-1.4-21.9-4.2s-13.4-6.7-19-11.6s-10.1-11.1-13.4-18.6C303.1,85.7,301.4,77.6,301.4,68.9
		z M314.2,68.9c0,9.1,2.2,17.2,6.6,24.5c4.4,7.3,10.3,12.9,17.6,16.8c7.3,4,15.2,5.9,23.6,5.9c6.4,0,12.7-1.1,18.8-3.4
		c6.2-2.3,11.6-5.4,16.4-9.5c4.8-4,8.6-9.1,11.5-15.1s4.4-12.5,4.4-19.5c0-9.2-2.5-17.4-7.5-24.7S394.3,31,386.5,27.2
		c-7.7-3.8-16-5.7-24.6-5.7s-16.6,1.9-23.9,5.6c-7.2,3.8-13,9.3-17.4,16.6C316.4,51,314.2,59.4,314.2,68.9z"/>
	<path class="st0" d="M452.6,100.4c0-12.6,5-22.5,14.9-29.6s23-10.7,39.3-10.7c14.1,0,27.8,1.8,41,5.3v-5.3
		c0-12.3-3.6-21.7-10.7-28.2c-7.1-6.5-17.2-9.7-30-9.7s-25.7,3.3-38.7,9.9L464,21.7c15.4-7.1,30-10.7,43.8-10.7
		c17,0,30,4.5,39.1,13.6c8.4,8.4,12.7,20.1,12.7,34.9v77.1h-11.7V116c-4.9,6.8-11.3,12.4-19.2,16.9s-17.3,6.7-28.1,6.7
		c-5.9,0-11.7-0.9-17.3-2.5c-5.6-1.7-10.7-4.1-15.3-7.3c-4.6-3.2-8.3-7.3-11.1-12.4C454,112.4,452.6,106.7,452.6,100.4z
		 M465.2,100.2c0,8.7,3.5,15.6,10.5,20.7s15.5,7.6,25.4,7.6c12.9,0,23.9-3.6,33-10.7c9.2-7.1,13.7-16.2,13.7-27.3V76.4
		c-14.2-3.7-28.2-5.6-41.9-5.6c-12.9,0-22.9,2.6-30,7.9C468.8,84,465.2,91.2,465.2,100.2z"/>
	<path class="st0" d="M595.4,136.8V13.1h12v22c2.3-3.6,4.6-6.8,6.9-9.5c2.3-2.7,5.1-5.3,8.3-7.8s7.1-4.4,11.5-5.7s9.2-2,14.5-2
		c10.1,0,18.7,2.5,25.6,7.4c7,4.9,12.3,11.4,16,19.2c10.3-17.8,25.2-26.6,44.7-26.6c14.6,0,26.2,4.7,34.7,14.1s12.8,21.9,12.8,37.5
		v75h-11.8V63.2c0-13.3-3.2-23.6-9.7-31S745.5,21.1,734,21.1c-10.9,0-20.1,3.9-27.7,11.8c-7.6,7.9-11.4,18.5-11.4,31.9v72H683V62.5
		c0-12.8-3.3-22.9-9.8-30.3s-15.3-11.1-26.4-11.1c-11.1,0-20.4,4.3-28.1,12.8c-7.7,8.6-11.5,19.1-11.5,31.6v71.3H595.4z"/>
	<path class="st0" d="M821.2,136.8V13.1H833v123.6h-11.8V136.8z"/>
</g>
</svg>
