<?xml version="1.0" encoding="utf-8"?>
<!-- Generator: Adobe Illustrator 20.0.0, SVG Export Plug-In . SVG Version: 6.00 Build 0)  -->
<svg version="1.1" id="Слой_1" xmlns="http://www.w3.org/2000/svg" xmlns:xlink="http://www.w3.org/1999/xlink" x="0px" y="0px"
	 viewBox="0 0 228 230" style="enable-background:new 0 0 228 230;" xml:space="preserve">
<style type="text/css">
	.st0{fill:#FFFFFF;}
</style>
<g>
	<path class="st0" d="M144,17c-54.6,0-5.2,0-59.8,0S16.6,30,16.6,84.6c0,30.5,0,5.2,0,59.8s13,67.6,67.6,67.6s5.2,0,59.8,0
		s67.6-13,67.6-67.6s0-5.2,0-59.8S198.6,17,144,17z M174,156.2h-14.2c-5.4,0-7-4.3-16.7-14c-8.4-8.1-12.1-9.2-14.2-9.2
		c-2.9,0-3.7,0.8-3.7,4.9v12.8c0,3.5-1.1,5.5-10.2,5.5c-15.1,0-31.6-9.1-43.4-26C54.1,105.4,49.3,86.7,49.3,83c0-2.1,0.8-4,4.9-4
		h14.2c3.6,0,5,1.6,6.4,5.5c7,20.3,18.7,38,23.5,38c1.8,0,2.6-0.8,2.6-5.4v-21c-0.5-9.6-5.7-10.4-5.7-13.9c0-1.6,1.4-3.3,3.6-3.3
		h22.4c3,0,4.1,1.6,4.1,5.2v28.2c0,3,1.3,4.1,2.2,4.1c1.8,0,3.3-1.1,6.6-4.4c10.2-11.5,17.5-29.1,17.5-29.1c0.9-2.1,2.6-4,6.2-4H172
		c4.3,0,5.2,2.2,4.3,5.2c-1.8,8.3-19.1,32.7-19.1,32.7c-1.5,2.4-2.1,3.6,0,6.3c1.5,2.1,6.5,6.3,9.8,10.2c6.1,6.9,10.7,12.7,12,16.7
		C180.1,154.1,178.1,156.2,174,156.2z"/>
</g>
</svg>
