<?xml version="1.0" encoding="UTF-8"?>
<svg width="24px" height="24px" viewBox="0 0 24 24" version="1.1" xmlns="http://www.w3.org/2000/svg" xmlns:xlink="http://www.w3.org/1999/xlink">
    <!-- Generator: Sketch 46.2 (44496) - http://www.bohemiancoding.com/sketch -->
    <title>svg/phone</title>
    <desc>Created with Sketch.</desc>
    <defs></defs>
    <g id="Symbols" stroke="none" stroke-width="1" fill="none" fill-rule="evenodd">
        <g id="svg/phone" fill="#FFFFFF">
            <g id="Group" transform="translate(12.020815, 12.020815) rotate(45.000000) translate(-12.020815, -12.020815) translate(6.020815, 1.020815)">
                <path d="M1,0 L11,0 C11.5522847,-1.01453063e-16 12,0.44771525 12,1 L12,21 C12,21.5522847 11.5522847,22 11,22 L1,22 C0.44771525,22 6.76353751e-17,21.5522847 0,21 L0,1 L0,1 C-6.76353751e-17,0.44771525 0.44771525,1.01453063e-16 1,0 L1,0 Z M6,21 C6.55228475,21 7,20.5522847 7,20 C7,19.4477153 6.55228475,19 6,19 C5.44771525,19 5,19.4477153 5,20 C5,20.5522847 5.44771525,21 6,21 Z M1,3 L1,18 L11,18 L11,3 L1,3 Z" id="Combined-Shape"></path>
            </g>
            <path d="M7,3.5 C5.06700338,3.5 3.5,5.06700338 3.5,7 C3.5,7.27614237 3.72385763,7.5 4,7.5 C4.27614237,7.5 4.5,7.27614237 4.5,7 C4.5,5.61928813 5.61928813,4.5 7,4.5 C7.27614237,4.5 7.5,4.27614237 7.5,4 C7.5,3.72385763 7.27614237,3.5 7,3.5 Z" id="Oval-2" fill-rule="nonzero"></path>
            <path d="M6.5,1 C3.46243388,1 1,3.46243388 1,6.5 C1,6.77614237 1.22385763,7 1.5,7 C1.77614237,7 2,6.77614237 2,6.5 C2,4.01471863 4.01471863,2 6.5,2 C6.77614237,2 7,1.77614237 7,1.5 C7,1.22385763 6.77614237,1 6.5,1 Z" id="Oval-2" fill-rule="nonzero"></path>
            <path d="M20,16.5 C18.0670034,16.5 16.5,18.0670034 16.5,20 C16.5,20.2761424 16.7238576,20.5 17,20.5 C17.2761424,20.5 17.5,20.2761424 17.5,20 C17.5,18.6192881 18.6192881,17.5 20,17.5 C20.2761424,17.5 20.5,17.2761424 20.5,17 C20.5,16.7238576 20.2761424,16.5 20,16.5 Z" id="Oval-2" fill-rule="nonzero" transform="translate(18.500000, 18.500000) rotate(180.000000) translate(-18.500000, -18.500000) "></path>
            <path d="M22.5,17 C19.4624339,17 17,19.4624339 17,22.5 C17,22.7761424 17.2238576,23 17.5,23 C17.7761424,23 18,22.7761424 18,22.5 C18,20.0147186 20.0147186,18 22.5,18 C22.7761424,18 23,17.7761424 23,17.5 C23,17.2238576 22.7761424,17 22.5,17 Z" id="Oval-2" fill-rule="nonzero" transform="translate(20.000000, 20.000000) rotate(180.000000) translate(-20.000000, -20.000000) "></path>
        </g>
    </g>
</svg>